<?xml version="1.0" encoding="UTF-8" standalone="no"?>
<svg xmlns:dc="http://purl.org/dc/elements/1.1/" xmlns:cc="http://web.resource.org/cc/" xmlns:rdf="http://www.w3.org/1999/02/22-rdf-syntax-ns#" xmlns:svg="http://www.w3.org/2000/svg" xmlns="http://www.w3.org/2000/svg" xmlns:xlink="http://www.w3.org/1999/xlink" xmlns:sodipodi="http://sodipodi.sourceforge.net/DTD/sodipodi-0.dtd" xmlns:inkscape="http://www.inkscape.org/namespaces/inkscape" version="1.0" width="250" height="250" id="svg8846" sodipodi:version="0.32" inkscape:version="0.45.1" sodipodi:docname="Pictogram_resolved.svg" inkscape:output_extension="org.inkscape.output.svg.inkscape" sodipodi:docbase="/home/azatoth/img">
  <metadata id="metadata13">
    <rdf:RDF>
      <cc:Work rdf:about="">
        <dc:format>image/svg+xml</dc:format>
        <dc:type rdf:resource="http://purl.org/dc/dcmitype/StillImage"/>
      </cc:Work>
    </rdf:RDF>
  </metadata>
  <sodipodi:namedview inkscape:window-height="958" inkscape:window-width="1312" inkscape:pageshadow="2" inkscape:pageopacity="0.0" guidetolerance="10.0" gridtolerance="10.0" objecttolerance="10.0" borderopacity="1.0" bordercolor="#666666" pagecolor="#ffffff" id="base" inkscape:zoom="1.508" inkscape:cx="125" inkscape:cy="125" inkscape:window-x="208" inkscape:window-y="126" inkscape:current-layer="layer1"/>
  <defs id="defs8848">
    <linearGradient id="linearGradient8409">
      <stop style="stop-color:white;stop-opacity:0.65934068" offset="0" id="stop8411"/>
      <stop style="stop-color:white;stop-opacity:0" offset="1" id="stop8413"/>
    </linearGradient>
    <linearGradient x1="200.5" y1="437.36218" x2="346.5" y2="583.36218" id="linearGradient22179" xlink:href="#linearGradient8409" gradientUnits="userSpaceOnUse"/>
  </defs>
  <g id="layer1">
    <path d="M 356 511.86218 A 82 80 0 1 1  192,511.86218 A 82 80 0 1 1  356 511.86218 z" transform="matrix(1.368836,0,0,1.403058,-249.9065,-592.9598)" style="opacity:1;fill:#ced29c;fill-opacity:1;fill-rule:evenodd;stroke:#0c670e;stroke-width:17.48716927;stroke-linecap:round;stroke-linejoin:round;stroke-miterlimit:4;stroke-dasharray:none;stroke-dashoffset:0;stroke-opacity:1" id="path19357"/>
    <path d="M 346.5 510.36218 A 73 73 0 1 1  200.5,510.36218 A 73 73 0 1 1  346.5 510.36218 z" style="opacity:1;fill:url(#linearGradient22179);fill-opacity:1;fill-rule:evenodd;stroke:none;stroke-width:15;stroke-linecap:round;stroke-linejoin:round;stroke-miterlimit:4;stroke-dasharray:none;stroke-dashoffset:0;stroke-opacity:1" id="path19359" transform="matrix(1.712702,0,0,1.712702,-343.7811,-749.0983)"/>
    <path d="M 47.351551,135.21849 C 73.63635,153.44262 101.67348,199.70388 101.67348,199.70388 L 128.30875,199.76399 C 128.30875,199.76399 142.40708,136.02304 155.62002,103.65183 C 167.97131,73.391669 181.57927,47.952953 181.57927,47.952953 C 181.57927,47.952953 167.07171,46.074634 151.02574,69.62034 C 122.05453,112.13246 109.38369,168.86304 109.38369,168.86304 C 109.38369,168.86304 102.02394,159.05004 87.654912,146.43335 C 73.285887,133.81664 48.052479,134.1671 47.351551,135.21849 z " style="fill:#208738;fill-opacity:1;fill-rule:evenodd;stroke:none;stroke-width:1px;stroke-linecap:butt;stroke-linejoin:miter;stroke-opacity:1" id="path19371"/>
  </g>
</svg>