<?xml version="1.0" encoding="UTF-8" standalone="no"?>
<!-- Created with Inkscape (http://www.inkscape.org/) -->
<svg xmlns:dc="http://purl.org/dc/elements/1.1/" xmlns:cc="http://creativecommons.org/ns#" xmlns:rdf="http://www.w3.org/1999/02/22-rdf-syntax-ns#" xmlns:svg="http://www.w3.org/2000/svg" xmlns="http://www.w3.org/2000/svg" xmlns:xlink="http://www.w3.org/1999/xlink" xmlns:sodipodi="http://sodipodi.sourceforge.net/DTD/sodipodi-0.dtd" xmlns:inkscape="http://www.inkscape.org/namespaces/inkscape" id="svg6606" version="1.1" inkscape:version="0.48.3.1 r9886" width="300" height="300" sodipodi:docname="Cancelled_cross.svg">
  <metadata id="metadata6612">
    <rdf:RDF>
      <cc:Work rdf:about="">
        <dc:format>image/svg+xml</dc:format>
        <dc:type rdf:resource="http://purl.org/dc/dcmitype/StillImage"/>
        <dc:title/>
      </cc:Work>
    </rdf:RDF>
  </metadata>
  <defs id="defs6610">
    <linearGradient id="linearGradient7228">
      <stop style="stop-color:#ef7d7d;stop-opacity:1;" offset="0" id="stop7230"/>
      <stop style="stop-color:#d82a2a;stop-opacity:1;" offset="1" id="stop7232"/>
    </linearGradient>
    <radialGradient inkscape:collect="always" xlink:href="#linearGradient7228" id="radialGradient7242" cx="150.11684" cy="68.636314" fx="150.11684" fy="68.636314" r="151.29103" gradientTransform="matrix(-1.4684705,-0.00286064,0.00199326,-1.0232169,370.5748,139.59259)" gradientUnits="userSpaceOnUse"/>
  </defs>
  <sodipodi:namedview pagecolor="#ffffff" bordercolor="#666666" borderopacity="1" objecttolerance="10" gridtolerance="10" guidetolerance="10" inkscape:pageopacity="0" inkscape:pageshadow="2" inkscape:window-width="1065" inkscape:window-height="820" id="namedview6608" showgrid="false" inkscape:zoom="3.1466667" inkscape:cx="63.099831" inkscape:cy="283.16464" inkscape:window-x="27" inkscape:window-y="252" inkscape:window-maximized="0" inkscape:current-layer="svg6606"/>
  <path style="fill:url(#radialGradient7242);fill-opacity:1;stroke:#970f00;stroke-width:5.94331408;stroke-miterlimit:4;stroke-opacity:1;stroke-dasharray:none" d="M 57.76163,6.9222838 C 62.395058,3.900296 71.375999,1.4127692 77.12147,5.5844082 99.248795,20.595032 124.99565,51.526354 149.87713,75.599106 174.50745,52.711332 207.19026,18.080718 219.72324,9.0471453 c 8.14593,-5.9272462 16.44718,-8.28227746 25.18354,-0.6295891 16.50107,13.7191728 33.58326,33.1531058 48.4783,48.4783018 5.68138,6.235989 3.5595,16.272712 0.62958,20.776417 -18.84416,26.144615 -46.05151,43.885645 -70.19912,72.087865 28.09881,24.82888 54.50191,52.59363 70.25315,71.58868 4.65258,6.58783 3.65948,11.96487 -0.36882,19.07204 -8.70497,12.04734 -36.35788,39.36825 -51.53404,52.60883 -5.54736,3.74364 -13.62581,4.83234 -20.55383,0.36879 -24.35046,-22.0334 -58.61955,-59.12833 -71.18167,-69.5695 -24.39547,24.48226 -47.74681,48.61329 -69.254727,67.05116 -6.549839,6.09111 -16.914899,8.50308 -24.515754,1.74254 -15.840231,-14.30397 -40.564238,-34.22467 -50.3670614,-52.20182 -1.9411822,-3.97837 -5.2145064,-12.94457 0,-19.51723 C 23.720684,201.69631 53.44299,173.64103 76.860687,149.85233 53.802015,126.87236 17.957997,92.135043 10.187204,83.230552 6.3284276,77.945191 0.47376797,66.112841 7.7093566,56.974558 20.906931,41.507369 52.291641,9.9704566 57.76163,6.9222838 z" id="path7226" inkscape:connector-curvature="0" sodipodi:nodetypes="ccccccccccccccccccccc"/>
  <path style="fill:#b20d0d;fill-opacity:1;stroke:none" d="M 84.328125,137.64739 C 75.237164,137.38395 67.27126,127.55756 58.952511,120.73031 47.227341,110.81993 35.432266,100.02515 26.45392,90.457654 20.868543,83.925784 14.266003,78.17487 15.193873,70.45128 c 4.960451,-2.551734 12.550425,7.232393 19.848977,13.643374 10.60334,11.021486 20.326295,20.134606 29.697082,29.512676 7.360357,8.22109 19.735802,17.69596 19.588193,24.04006 z" id="path6616" inkscape:connector-curvature="0" sodipodi:nodetypes="ccccccc"/>
  <path style="fill:#ef5656;fill-opacity:1;stroke:none" d="M 14.011872,71.143406 C 22.07461,66.564958 29.641923,58.518557 37.306642,51.153977 44.128427,45.593858 49.831009,38.914537 55.879498,32.581121 61.455138,26.127839 68.170958,19.674559 70.202633,13.221279 65.5266,10.60079 51.68327,23.551624 49.583614,25.813046 42.605675,32.267467 35.62774,38.803573 28.649801,46.904255 22.310911,54.784382 13.160309,64.507262 14.011872,71.143406 z" id="path7126" inkscape:connector-curvature="0" sodipodi:nodetypes="ccccccc"/>
  <path style="fill:#ef5656;fill-opacity:1;stroke:none" d="m 70.202633,13.850867 c 7.106576,0.64846 23.585769,18.00459 26.980097,20.738224 9.10478,8.402223 19.80082,19.986917 29.99765,30.573227 6.23987,7.782128 16.93337,17.048805 18.36085,23.226802 C 138.78766,86.076159 125.85163,75.818196 113.93301,65.239438 105.62285,58.512724 96.422348,49.629324 87.66702,40.754197 80.771608,34.120205 70.084306,24.646271 70.202633,13.850867 z" id="path7128" inkscape:connector-curvature="0" sodipodi:nodetypes="ccccccc"/>
  <path style="fill:#b20d0d;fill-opacity:1;stroke:none" d="m 218.52118,138.48434 c 9.09095,-0.26342 17.05686,-10.08983 25.3756,-16.91707 11.72518,-9.91037 23.52024,-20.70514 32.49858,-30.272652 5.58539,-6.531868 13.13232,-12.597575 12.20445,-20.321166 -4.96046,-2.551735 -13.49482,7.547187 -20.79336,13.958168 -10.60335,11.021485 -20.32629,20.1346 -29.69709,29.51267 -7.36035,8.22109 -19.73579,17.69594 -19.58818,24.04005 z" id="path6616-9" inkscape:connector-curvature="0" sodipodi:nodetypes="ccccccc"/>
  <path style="fill:#ef5656;fill-opacity:1;stroke:none" d="m 288.83742,71.98037 c -7.90534,-1.902695 -18.3058,-11.995258 -25.97051,-19.359839 -6.82179,-5.560118 -12.52436,-12.239439 -18.57286,-18.572856 -5.57564,-6.453282 -13.39324,-16.054504 -14.63793,-21.720799 4.67603,-2.6204896 18.83415,12.691303 20.93381,14.952725 6.97794,6.45442 13.95588,12.990526 20.9338,21.091209 6.33891,7.880126 18.16526,16.973418 17.31369,23.60956 z" id="path7126-7" inkscape:connector-curvature="0" sodipodi:nodetypes="ccccccc"/>
  <path style="fill:#ef5656;fill-opacity:1;stroke:none" d="m 229.65612,12.956465 c -7.10658,0.648458 -23.58577,18.004591 -26.9801,20.738225 -9.10479,8.402222 -19.80081,19.986917 -29.99764,30.573226 -6.23987,7.782127 -16.93338,17.048804 -18.36085,23.226801 6.75354,-2.31296 19.6896,-12.570924 31.60821,-23.149681 8.31015,-6.726715 17.51066,-15.610115 26.26598,-24.485241 6.89543,-6.633994 17.58273,-16.107926 17.4644,-26.90333 z" id="path7128-5" inkscape:connector-curvature="0" sodipodi:nodetypes="ccccccc"/>
  <path style="fill:#ef5656;fill-opacity:1;stroke:none" d="m 87.495006,159.30024 c -8.887319,1.53884 -24.921329,17.11422 -28.315658,19.84785 -9.104791,8.40223 -19.800815,19.98692 -29.99765,30.57323 -6.239864,7.78213 -15.375222,16.60361 -17.025289,24.11717 6.530964,-0.53222 17.463674,-13.01612 29.382296,-23.59486 8.310141,-7.83969 17.955841,-17.39087 26.711167,-26.266 6.895413,-6.63399 16.024565,-17.88866 19.245134,-24.67739 z" id="path7128-2" inkscape:connector-curvature="0" sodipodi:nodetypes="ccccccc"/>
  <path style="fill:#ef5656;fill-opacity:1;stroke:none" d="m 217.76269,161.58851 c 7.62813,-0.34992 21.77339,14.59587 25.16771,17.3295 9.1048,8.40224 19.80081,19.98692 29.99766,30.57323 6.23985,7.78213 15.37522,16.60361 17.02529,24.11717 -6.53097,-0.53221 -17.46367,-13.0161 -29.3823,-23.59486 -8.31014,-7.83968 -17.95583,-17.39086 -26.71118,-26.26598 -6.89539,-6.63401 -14.76537,-17.2591 -16.09718,-22.15906 z" id="path7128-2-0" inkscape:connector-curvature="0" sodipodi:nodetypes="ccccccc"/>
  <path style="fill:#b20d0d;fill-opacity:1;stroke:none" d="m 69.188926,288.19729 c 7.955859,-0.26343 18.14468,-10.40462 25.375609,-16.91707 10.896315,-9.49594 20.210655,-19.83733 31.554205,-30.58746 5.90019,-5.89767 23.52052,-23.13809 22.59265,-30.70936 -6.20842,-1.30377 -23.24658,18.55814 -30.23717,24.66116 -10.60337,11.40338 -20.326321,20.5908 -29.697101,29.51269 -6.711139,6.65693 -18.723338,18.20218 -19.588193,24.04004 z" id="path6616-9-0" inkscape:connector-curvature="0" sodipodi:nodetypes="ccccccc"/>
  <path style="fill:#b20d0d;fill-opacity:1;stroke:none" d="m 233.38179,287.51011 c -7.32629,-2.46697 -15.94112,-9.46023 -23.17204,-15.97267 -10.89632,-9.49595 -20.84023,-20.15213 -32.18379,-30.90225 -5.90019,-5.89767 -22.89094,-22.8233 -21.96307,-30.39459 6.20844,-1.30375 22.617,18.87294 29.6076,24.97598 10.60335,11.40338 20.9559,21.22037 30.32666,30.14225 6.71115,6.65693 16.51979,16.31342 17.38464,22.15128 z" id="path6616-9-0-6" inkscape:connector-curvature="0" sodipodi:nodetypes="ccccccc"/>
</svg>