<?xml version="1.0" encoding="UTF-8"?>
<!-- Generator: Adobe Illustrator 22.0.1, SVG Export Plug-In . SVG Version: 6.00 Build 0)  -->
<svg version="1.1" id="Laag_1" xmlns="http://www.w3.org/2000/svg" xmlns:xlink="http://www.w3.org/1999/xlink" x="0px" y="0px" viewBox="0 0 561.5 242" style="enable-background:new 0 0 561.5 242;" xml:space="preserve">
<style type="text/css">
	.st0{fill:#FCF6EF;}
	.st1{enable-background:new    ;}
	.st2{fill:#91AD3D;}
	.st3{fill:#FAC212;}
</style>
<title>TECHORAMA-logo-NL</title>
<g>
	<g id="Layer_13">
		<path class="st0" d="M163.3,35.2c-5.2-0.1-10.3,1.3-14.8,3.9c-4.3,2.6-8.1,6-11.2,10c-5.8,8.1-8.9,17.8-8.8,27.8    c-0.1,10,3,19.7,8.8,27.8c3,4.1,6.8,7.5,11.2,10c4.5,2.6,9.6,4,14.8,4v4.2c-5.9-0.1-11.7-1.6-16.8-4.5c-4.9-2.8-9.1-6.6-12.4-11.1    c-6.3-8.8-9.7-19.5-9.6-30.3c-0.1-10.8,3.2-21.4,9.6-30.2c3.3-4.6,7.6-8.5,12.5-11.3c5.1-2.9,10.9-4.4,16.8-4.4V35.2z"/>
		<path class="st0" d="M163.3,45.5c-3.4-0.1-6.8,0.8-9.7,2.5c-3.1,1.8-5.8,4.3-8,7.2c-4.5,6-6.7,13.8-6.7,21.7s2.2,15.7,6.7,21.7    c2.2,2.9,4.9,5.3,8,7.2c2.9,1.7,6.3,2.6,9.7,2.7v4.2c-4.1,0-8.2-1.1-11.8-3.2c-3.6-2.1-6.8-4.9-9.2-8.3c-5-7.1-7.6-15.5-7.5-24.1    c-0.1-8.6,2.5-17.1,7.5-24.1c2.5-3.4,5.6-6.2,9.2-8.3c3.5-2.1,7.6-3.2,11.8-3.1L163.3,45.5z"/>
		<path class="st0" d="M267.1,36.7c-3.7-4-9.2-5.5-14.2-5.5c-5.2-0.2-10.2,1.8-13.8,5.5c-4.3,4-6.8,9.6-6.8,15.5v50.5    c0,5.9,2.5,11.5,6.8,15.5c3.8,3.4,8.8,5.2,13.8,5.1c5.2,0.1,10.2-1.7,14.2-5.1c4.3-4,6.8-9.6,6.8-15.5V52.1    C273.9,46.2,271.4,40.6,267.1,36.7z M270.1,102.7c0,4.8-2,9.3-5.5,12.5c-3.2,3.1-7.6,4.2-11.6,4.2c-4.7,0-8.4-1.4-11.3-4.2    c-3.6-3.2-5.6-7.7-5.5-12.5V52.1c0-4.8,2-9.3,5.5-12.5c3-3,7.1-4.6,11.3-4.6c4.3,0,8.5,1.7,11.6,4.6c3.6,3.2,5.6,7.7,5.5,12.5    V102.7z"/>
		<path class="st0" d="M260.3,44c-2-1.8-4.7-2.7-7.4-2.7c-2.7-0.1-5.4,0.9-7.5,2.7c-2.3,2.1-3.6,5-3.6,8.1v50.5c0,3.1,1.3,6,3.6,8.1    c2.1,1.8,4.8,2.7,7.5,2.7c2.7,0.1,5.3-0.9,7.4-2.7c2.5-1.9,4-4.9,4-8.1V52.1C264.3,48.9,262.8,46,260.3,44z M260.1,102.6    c0,2-0.8,3.8-2.3,5.1c-1.3,1.2-3.1,1.8-4.9,1.7c-1.8,0.1-3.6-0.5-5-1.7c-1.5-1.3-2.3-3.1-2.3-5.1V52.1c0-2,0.8-3.8,2.3-5.1    c1.4-1.2,3.2-1.8,5-1.7c1.8-0.1,3.5,0.6,4.9,1.7c1.5,1.3,2.3,3.1,2.3,5.1V102.6z"/>
		<rect x="45.7" y="35.1" class="st0" width="4.3" height="88"/>
		<polygon class="st0" points="50,45.3 45.7,45.3 45.7,46 50,46.4   "/>
		<rect x="35.5" y="45.2" class="st0" width="4.3" height="77.9"/>
		<rect x="19.8" y="41.1" class="st0" width="45.9" height="4.3"/>
		<rect x="19.8" y="30.9" class="st0" width="45.9" height="4.3"/>
		<rect x="87.2" y="80.5" class="st0" width="4.3" height="42.6"/>
		<polygon class="st0" points="87.2,109 91.4,109 91.4,108.3 87.2,107.9   "/>
		<rect x="76.8" y="108.9" class="st0" width="36.3" height="4.3"/>
		<rect x="87.2" y="41.2" class="st0" width="4.3" height="32.8"/>
		<rect x="76.9" y="31.1" class="st0" width="4.3" height="92"/>
		<rect x="87.2" y="80.5" class="st0" width="25.8" height="4.3"/>
		<rect x="77.8" y="70.3" class="st0" width="35.3" height="4.3"/>
		<rect x="76.9" y="119.1" class="st0" width="36.2" height="4.3"/>
		<rect x="87.1" y="41.2" class="st0" width="26" height="4.3"/>
		<rect x="76.9" y="31" class="st0" width="36.2" height="4.3"/>
		<polyline class="st0" points="190,98.6 218.8,98.6 218.8,94.3 189.9,94.3   "/>
		<polyline class="st0" points="179.5,94.3 168.8,94.3 168.8,98.6 179.5,98.6   "/>
		<polygon class="st0" points="191.8,94.3 191.8,98.6 192.5,98.6 192.9,94.3   "/>
		<rect x="187.6" y="31" class="st0" width="4.3" height="92"/>
		<rect x="177.4" y="31" class="st0" width="4.3" height="92"/>
		<rect x="214.6" y="31" class="st0" width="4.3" height="92"/>
		<rect x="204.3" y="31" class="st0" width="4.3" height="92"/>
		<polyline class="st0" points="190,88.4 218.8,88.4 218.8,84.1 189.8,84.1   "/>
		<polyline class="st0" points="179.3,84.1 168.8,84.1 168.8,88.4 179,88.4   "/>
		<polygon class="st0" points="338.3,79.8 336.2,83.5 365.5,100.3 365.5,95.3   "/>
		<polygon class="st0" points="365.5,95.3 365.5,100.3 367.1,101.1 367.1,96.2   "/>
		<polygon class="st0" points="338.3,68.1 336.1,71.8 362,86.6 362,81.6   "/>
		<polygon class="st0" points="372.6,99.4 358.2,91.2 354.4,89 348.6,85.7 344.8,83.5 344.8,88.4 348.6,90.6 354.4,93.9 358.2,96.1     372.6,104.3 372.6,122.7 376.9,122.7 376.9,106.7 376.9,101.8   "/>
		<polygon class="st0" points="358.2,91.2 358.2,96.1 358.9,96.4 359.2,91.7   "/>
		<polygon class="st0" points="344.8,122.7 348.6,122.7 348.6,90.6 344.8,88.4   "/>
		<path class="st0" d="M379.7,36.2c-3.7-4-9.2-5.5-14.2-5.5c-5.2-0.2-10.2,1.8-13.8,5.5c-4.3,4-6.8,9.6-6.8,15.5v31.9l3.8,2.2V51.6    c0-4.8,2-9.3,5.5-12.5c3-3,7.1-4.6,11.3-4.6c4.3,0,8.5,1.7,11.6,4.6c3.6,3.2,5.6,7.7,5.5,12.5v71.1h3.8V51.6    C386.5,45.8,384,40.1,379.7,36.2z"/>
		<polygon class="st0" points="344.8,88.4 348.6,90.6 348.6,85.7 344.8,83.5   "/>
		<polygon class="st0" points="372.6,87.7 358.2,79.4 354.4,77.3 354.4,82.2 358.2,84.4 372.6,92.6 376.9,95 376.9,90.1   "/>
		<path class="st0" d="M372.9,43.6c-2-1.8-4.7-2.7-7.4-2.7c-2.7-0.1-5.4,0.9-7.5,2.7c-2.3,2.1-3.6,5-3.6,8.1v71.1h3.8V51.6    c0-2,0.8-3.8,2.3-5.1c1.4-1.2,3.2-1.8,5-1.7c1.8-0.1,3.5,0.6,4.9,1.7c1.5,1.3,2.3,3.1,2.3,5.1v36l4.3,2.4V51.6    C376.9,48.4,375.4,45.4,372.9,43.6z"/>
		<polygon class="st0" points="470.1,79.8 467.9,83.5 497.3,100.3 497.3,95.3   "/>
		<polygon class="st0" points="497.3,95.3 497.3,100.3 498.8,101.1 498.8,96.2   "/>
		<polygon class="st0" points="470,68.1 467.9,71.8 493.8,86.6 493.8,81.6   "/>
		<polygon class="st0" points="504.4,99.4 490,91.2 486.2,89 480.4,85.7 476.6,83.5 476.6,88.4 480.4,90.6 486.2,93.9 490,96.1     504.4,104.3 504.4,122.7 508.7,122.7 508.7,106.7 508.7,101.8   "/>
		<polygon class="st0" points="490,91.2 490,96.1 490.6,96.4 491,91.7   "/>
		<polygon class="st0" points="476.6,122.7 480.4,122.7 480.4,90.6 476.6,88.4   "/>
		<path class="st0" d="M511.4,36.2c-3.7-4-9.2-5.5-14.2-5.5c-5.2-0.2-10.2,1.8-13.8,5.5c-4.3,4-6.8,9.6-6.8,15.5v31.9l3.8,2.2V51.6    c0-4.8,2-9.3,5.5-12.5c3-3,7.1-4.6,11.3-4.6c4.3,0,8.5,1.7,11.6,4.6c3.6,3.2,5.6,7.7,5.5,12.5v71.1h3.8V51.6    C518.2,45.8,515.8,40.1,511.4,36.2z"/>
		<polygon class="st0" points="476.6,88.4 480.4,90.6 480.4,85.7 476.6,83.5   "/>
		<polygon class="st0" points="504.4,87.7 490,79.4 486.2,77.3 486.2,82.2 490,84.4 504.4,92.6 508.7,95 508.7,90.1   "/>
		<path class="st0" d="M504.6,43.6c-2-1.8-4.7-2.7-7.4-2.7c-2.7-0.1-5.4,0.9-7.5,2.7c-2.3,2.1-3.6,5-3.6,8.1v71.1h3.8V51.6    c0-2,0.8-3.8,2.3-5.1c1.4-1.2,3.2-1.8,5-1.7c1.8-0.1,3.5,0.6,4.9,1.7c1.5,1.3,2.3,3.1,2.3,5.1v36l4.3,2.4V51.6    C508.7,48.4,507.2,45.4,504.6,43.6z"/>
		<polygon class="st0" points="301.3,78.4 297.1,68.5 297.1,123.1 301.3,123.1 301.3,100 301.3,93.2   "/>
		<path class="st0" d="M301.3,48.4v-4.7c-1.1-0.5-2.3-1-3.5-1.4l-0.7,2.2v6.9l4.1,9.8V48.4z"/>
		<polygon class="st0" points="286.6,123.1 290.7,123.1 290.7,63.7 297,78.4 302.1,90.6 305.6,88.3 286.6,43.1   "/>
		<path class="st0" d="M309,95.8c-2.4,1.8-5,3.2-7.7,4.2v4.4c2-0.6,3.9-1.5,5.8-2.4l8.9,21.1h4.5L309,95.8z"/>
		<polygon class="st0" points="301.3,88.7 305,87 304.3,85.2 301.1,88.2   "/>
		<path class="st0" d="M318.9,92.4c13.2-16.1,10.7-39.9-5.4-53c-3.6-2.9-7.7-5.2-12.1-6.6c-2.8-0.9-5.6-1.5-8.5-1.7l2,4.5    c11.3,1.6,20.9,9.5,25.5,19.6c4.7,10.8,3.4,23.3-3.3,32.9c-0.9,1.3-2,2.3-3,3.6l13.3,31.5h4.5L318.9,92.4z"/>
		<path class="st0" d="M311.8,75.5l-10.4-24.7l-3.5-8.3l-3-7c10.3,1.6,19.3,8,24.2,17.1h4.7c-4.4-9.4-12.6-16.6-22.5-19.9    c-4.2-1.4-8.5-2-12.9-1.9l21,49.7"/>
		<path class="st0" d="M316.8,66c-1-11-8.5-20.4-19-23.8l2.4,5.8c0.4,0.1,0.7,0.2,1.1,0.4h0l0.8,0.5c1.4,0.9,2.7,1.9,3.8,3.1    c6,6.1,8.2,15.1,5.6,23.3l-2.3,5.1c-1.2,2-2.7,3.8-4.5,5.4l-3.6,2.8v4.3C311.5,88,317.7,77.3,316.8,66z"/>
		<polygon class="st0" points="445.2,69.2 444.2,71.1 444.2,85.8 444.2,95.4 444.2,104.8 444.2,123.3 448.5,123.3 448.5,112.6     448.5,103.8 448.5,94.2 448.5,84.8 448.5,64.9   "/>
		<polygon class="st0" points="413.7,69.2 414.6,71.1 414.6,85.8 414.6,95.4 414.6,104.8 414.6,123.3 410.4,123.3 410.4,112.6     410.4,103.8 410.4,94.2 410.4,84.8 410.4,64.9   "/>
		<polygon class="st0" points="429.6,83.1 400.1,41.5 400.1,123.3 404.3,123.3 404.3,56.7 429.6,90.7 454.5,57.3 454.5,123.3     458.8,123.3 458.8,42.1   "/>
		<polygon class="st0" points="429.6,65.8 405.4,31.3 399.6,31.3 429.6,73.5 459.6,31.3 453.7,31.3   "/>
		<path class="st0" d="M35.8,154.4h5.3c1,0,2,0.2,2.9,0.5c0.9,0.3,1.6,0.8,2.3,1.4c0.6,0.6,1.1,1.3,1.5,2.1c0.3,0.8,0.5,1.8,0.5,2.7    l0,0c0,0.9-0.2,1.8-0.5,2.7c-0.3,0.8-0.8,1.6-1.5,2.2c-0.7,0.6-1.4,1.1-2.3,1.5c-0.9,0.4-1.9,0.5-2.9,0.5h-5.3L35.8,154.4z     M41.1,165.3c0.6,0,1.1-0.1,1.7-0.3c0.5-0.2,0.9-0.5,1.3-0.8c0.4-0.4,0.6-0.8,0.8-1.3c0.2-0.5,0.3-1.1,0.3-1.6l0,0    c0-0.6-0.1-1.1-0.3-1.6c-0.2-0.5-0.5-0.9-0.8-1.3c-0.4-0.4-0.8-0.7-1.3-0.9c-0.5-0.2-1.1-0.3-1.7-0.3h-2.3v8.2L41.1,165.3z"/>
		<path class="st0" d="M55.3,154.4h10.2v2.7h-7.3v2.8h6.4v2.7h-6.4v2.9h7.4v2.7H55.3V154.4z"/>
		<path class="st0" d="M72.9,154.4h10.2v2.7h-7.3v2.8h6.4v2.7h-6.4v2.9h7.4v2.7H72.9V154.4z"/>
		<path class="st0" d="M90.4,154.4H96c0.7,0,1.5,0.1,2.2,0.3c0.6,0.2,1.2,0.6,1.6,1c0.4,0.4,0.8,0.9,1,1.5c0.2,0.6,0.4,1.3,0.3,1.9    l0,0c0,0.7-0.1,1.4-0.4,2.1c-0.3,0.6-0.7,1.1-1.2,1.5c-0.5,0.4-1.1,0.7-1.7,0.9c-0.7,0.2-1.4,0.3-2.2,0.3h-2.3v4.1h-3L90.4,154.4z     M95.8,161.2c0.6,0,1.3-0.2,1.8-0.6c0.4-0.4,0.6-0.9,0.6-1.5l0,0c0-0.6-0.2-1.2-0.7-1.5c-0.5-0.4-1.1-0.6-1.8-0.5h-2.3v4.2    L95.8,161.2z"/>
		<path class="st0" d="M118.3,154.4h3v5.9l5.5-5.9h3.6l-5.5,5.8l5.8,7.8h-3.6l-4.2-5.8l-1.6,1.6v4.2h-3L118.3,154.4z"/>
		<path class="st0" d="M136.9,154.4h2.8l6.4,8.4v-8.4h2.9V168h-2.5l-6.6-8.6v8.6h-2.9V154.4z"/>
		<path class="st0" d="M163.2,168.2c-1,0-2-0.2-2.9-0.6c-0.8-0.3-1.6-0.9-2.3-1.5c-1.3-1.3-2-3.1-2-4.9l0,0c0-1.9,0.7-3.7,2-5    c0.7-0.7,1.4-1.2,2.3-1.5c1.9-0.7,3.9-0.7,5.8,0c0.8,0.3,1.6,0.9,2.3,1.5c0.6,0.6,1.1,1.4,1.5,2.2c0.4,0.9,0.5,1.8,0.5,2.7l0,0    c0,2.8-1.7,5.4-4.3,6.5C165.2,168,164.2,168.2,163.2,168.2z M163.2,165.5c0.6,0,1.1-0.1,1.6-0.3c0.5-0.2,0.9-0.5,1.3-0.9    c0.7-0.8,1.1-1.9,1.1-3l0,0c0-0.6-0.1-1.1-0.3-1.6c-0.2-0.5-0.5-1-0.9-1.4c-0.8-0.8-1.9-1.3-3-1.3c-0.6,0-1.1,0.1-1.7,0.3    c-0.5,0.2-0.9,0.5-1.3,0.9c-0.4,0.4-0.6,0.9-0.8,1.4c-0.2,0.5-0.3,1.1-0.3,1.6l0,0c0,0.6,0.1,1.1,0.3,1.6c0.2,0.5,0.5,1,0.9,1.4    c0.4,0.4,0.8,0.7,1.3,0.9C162,165.4,162.6,165.5,163.2,165.5L163.2,165.5z"/>
		<path class="st0" d="M175.7,154.4h3.2l2.8,9.2l3-9.2h2.6l3.1,9.2l2.8-9.2h3.1l-4.6,13.7H189l-3-8.9l-3.1,8.9h-2.6L175.7,154.4z"/>
		<path class="st0" d="M202.7,154.4h3v10.9h6.8v2.7h-9.8L202.7,154.4z"/>
		<path class="st0" d="M218.9,154.4h10.2v2.7h-7.3v2.8h6.4v2.7h-6.4v2.9h7.4v2.7h-10.3V154.4z"/>
		<path class="st0" d="M236.4,154.4h5.3c1,0,2,0.2,2.9,0.5c0.9,0.3,1.6,0.8,2.3,1.4c0.6,0.6,1.1,1.3,1.5,2.1    c0.4,0.8,0.5,1.8,0.5,2.7l0,0c0,0.9-0.2,1.8-0.5,2.7c-0.3,0.8-0.8,1.5-1.5,2.1c-0.7,0.6-1.4,1.1-2.3,1.4c-0.9,0.4-1.9,0.5-2.9,0.5    h-5.3V154.4z M241.7,165.3c0.6,0,1.1-0.1,1.7-0.3c0.5-0.2,0.9-0.5,1.3-0.8c0.4-0.4,0.6-0.8,0.8-1.3c0.2-0.5,0.3-1.1,0.3-1.6l0,0    c0-0.6-0.1-1.1-0.3-1.6c-0.2-0.5-0.5-0.9-0.8-1.3c-0.4-0.4-0.8-0.7-1.3-0.9c-0.5-0.2-1.1-0.3-1.7-0.3h-2.3v8.2L241.7,165.3z"/>
		<path class="st0" d="M262.4,168.2c-1,0-2-0.2-2.9-0.5c-0.8-0.3-1.6-0.8-2.2-1.4c-0.6-0.6-1.1-1.4-1.5-2.2    c-0.4-0.9-0.5-1.8-0.5-2.8l0,0c0-0.9,0.2-1.9,0.5-2.7c0.7-1.7,2.1-3,3.7-3.8c0.9-0.4,1.9-0.6,2.9-0.6c0.6,0,1.1,0,1.7,0.1    c0.5,0.1,0.9,0.2,1.4,0.4c0.4,0.2,0.8,0.3,1.2,0.6c0.4,0.2,0.7,0.5,1.1,0.8l-1.9,2.3c-0.2-0.2-0.5-0.4-0.8-0.6    c-0.3-0.2-0.5-0.3-0.8-0.4c-0.3-0.1-0.6-0.2-0.9-0.3c-0.4-0.1-0.7-0.1-1.1-0.1c-0.5,0-1.1,0.1-1.5,0.3c-1,0.5-1.7,1.3-2.1,2.3    c-0.2,0.5-0.3,1.1-0.3,1.6l0,0c0,0.6,0.1,1.2,0.3,1.7c0.2,0.5,0.5,1,0.9,1.4c0.4,0.4,0.8,0.7,1.3,0.9c0.5,0.2,1.1,0.3,1.7,0.3    c1,0,2-0.3,2.8-0.8v-2h-3v-2.6h5.9v5.9c-0.8,0.6-1.6,1.1-2.5,1.5C264.7,168,263.5,168.2,262.4,168.2z"/>
		<path class="st0" d="M275.6,154.4h10.2v2.7h-7.3v2.8h6.5v2.7h-6.4v2.9h7.4v2.7h-10.4V154.4z"/>
		<path class="st0" d="M303.7,154.4h3V168h-3V154.4z"/>
		<path class="st0" d="M317.3,157.1h-4.1v-2.8h11.3v2.8h-4.1V168h-3L317.3,157.1z"/>
		<path class="st0" d="M348,168.2c-1,0-1.9-0.2-2.8-0.6c-0.8-0.3-1.6-0.8-2.2-1.5c-0.6-0.6-1.1-1.4-1.5-2.2    c-0.4-0.9-0.5-1.8-0.5-2.7l0,0c0-0.9,0.2-1.9,0.5-2.7c0.3-0.8,0.8-1.6,1.5-2.2c0.6-0.7,1.4-1.2,2.2-1.5c0.9-0.4,1.9-0.6,2.9-0.6    c0.6,0,1.2,0,1.7,0.2c0.5,0.1,1,0.2,1.4,0.4c0.4,0.2,0.8,0.4,1.2,0.7c0.4,0.3,0.7,0.5,1,0.9l-1.9,2.2c-0.5-0.4-1-0.8-1.6-1.1    c-0.6-0.3-1.2-0.4-1.9-0.4c-0.5,0-1.1,0.1-1.6,0.3c-0.5,0.2-0.9,0.5-1.2,0.9c-0.4,0.4-0.6,0.9-0.8,1.4c-0.2,0.5-0.3,1.1-0.3,1.6    l0,0c0,0.6,0.1,1.1,0.3,1.6c0.2,0.5,0.5,1,0.8,1.4c0.3,0.4,0.8,0.7,1.2,0.9c0.5,0.2,1,0.3,1.6,0.3c0.7,0,1.4-0.1,2-0.4    c0.6-0.3,1.1-0.7,1.6-1.2l1.9,1.9c-0.3,0.4-0.7,0.7-1.1,1c-0.4,0.3-0.8,0.6-1.2,0.8c-0.5,0.2-1,0.4-1.5,0.5    C349.2,168.2,348.6,168.2,348,168.2z"/>
		<path class="st0" d="M366.4,168.2c-1,0-2-0.2-2.9-0.6c-0.8-0.3-1.6-0.9-2.3-1.5c-0.6-0.6-1.1-1.4-1.5-2.2    c-0.4-0.9-0.5-1.8-0.5-2.7l0,0c0-0.9,0.2-1.9,0.5-2.7c0.7-1.7,2.1-3,3.8-3.8c1.9-0.7,3.9-0.7,5.8,0c0.8,0.3,1.6,0.9,2.3,1.5    c0.6,0.6,1.1,1.4,1.5,2.2c0.4,0.9,0.5,1.8,0.5,2.7l0,0c0,1.9-0.7,3.7-2,5c-0.7,0.6-1.4,1.2-2.3,1.5    C368.3,168.1,367.4,168.2,366.4,168.2z M366.4,165.5c0.6,0,1.1-0.1,1.6-0.3c0.5-0.2,0.9-0.5,1.3-0.9c0.4-0.4,0.6-0.9,0.8-1.4    c0.2-0.5,0.3-1.1,0.3-1.6l0,0c0-0.6-0.1-1.1-0.3-1.6c-0.2-0.5-0.5-1-0.9-1.4c-0.4-0.4-0.8-0.7-1.3-0.9c-0.5-0.2-1.1-0.3-1.6-0.3    c-0.6,0-1.1,0.1-1.7,0.3c-0.5,0.2-0.9,0.5-1.3,0.9c-0.7,0.8-1.1,1.9-1.1,3l0,0c0,0.6,0.1,1.1,0.3,1.6c0.2,0.5,0.5,1,0.9,1.4    c0.4,0.4,0.8,0.7,1.3,0.9C365.2,165.4,365.8,165.5,366.4,165.5L366.4,165.5z"/>
		<path class="st0" d="M380.6,154.4h2.8l6.4,8.4v-8.4h3V168h-2.5l-6.6-8.6v8.6h-3L380.6,154.4z"/>
		<path class="st0" d="M400.4,154.4h10.4v2.7h-7.4v2.9h6.5v2.7h-6.5v5.3h-3L400.4,154.4z"/>
		<path class="st0" d="M417.4,154.4h10.2v2.7h-7.3v2.8h6.4v2.7h-6.4v2.9h7.4v2.7h-10.3V154.4z"/>
		<path class="st0" d="M435,154.4h6.2c1.5-0.1,2.9,0.4,4,1.4c0.8,0.8,1.2,2,1.2,3.1l0,0c0,1-0.2,1.9-0.8,2.7    c-0.5,0.7-1.3,1.2-2.1,1.5l3.3,4.9h-3.5l-2.9-4.3H438v4.4h-3V154.4z M441,161c0.6,0,1.2-0.1,1.7-0.5c0.4-0.4,0.6-0.9,0.6-1.4l0,0    c0-0.6-0.2-1.1-0.6-1.4c-0.5-0.4-1.1-0.5-1.7-0.5h-3v3.9H441z"/>
		<path class="st0" d="M453.5,154.4h10.2v2.7h-7.3v2.8h6.4v2.7h-6.4v2.9h7.4v2.7h-10.3V154.4z"/>
		<path class="st0" d="M471,154.4h2.8l6.4,8.4v-8.4h3V168h-2.5l-6.6-8.7v8.7h-3V154.4z"/>
		<path class="st0" d="M497.1,168.2c-1,0-1.9-0.2-2.8-0.6c-0.8-0.3-1.6-0.8-2.2-1.5c-0.6-0.6-1.1-1.4-1.5-2.2    c-0.4-0.9-0.5-1.8-0.5-2.7l0,0c0-0.9,0.2-1.9,0.5-2.7c0.3-0.8,0.8-1.6,1.5-2.2c0.6-0.6,1.4-1.2,2.2-1.5c0.9-0.4,1.9-0.6,2.9-0.6    c0.6,0,1.2,0,1.7,0.2c0.5,0.1,1,0.2,1.4,0.4c0.4,0.2,0.8,0.4,1.2,0.7c0.4,0.3,0.7,0.5,1,0.9l-1.9,2.2c-0.5-0.4-1-0.8-1.6-1.1    c-0.6-0.3-1.2-0.4-1.9-0.4c-0.5,0-1.1,0.1-1.6,0.3c-0.5,0.2-0.9,0.5-1.2,0.9c-0.4,0.4-0.6,0.9-0.8,1.4c-0.2,0.5-0.3,1.1-0.3,1.6    l0,0c0,0.6,0.1,1.1,0.3,1.6c0.2,0.5,0.5,1,0.8,1.4c0.3,0.4,0.8,0.7,1.2,0.9c0.5,0.2,1.1,0.3,1.6,0.3c0.7,0,1.4-0.1,2-0.4    c0.6-0.3,1.1-0.7,1.6-1.2l1.9,1.9c-0.3,0.4-0.7,0.7-1.1,1c-0.8,0.6-1.7,1.1-2.7,1.2C498.3,168.2,497.7,168.2,497.1,168.2z"/>
		<path class="st0" d="M509.3,154.4h10.2v2.7h-7.3v2.8h6.4v2.7h-6.4v2.9h7.4v2.7h-10.3V154.4z"/>
		<rect x="36.7" y="186.9" class="st0" width="484.2" height="1.7"/>
		<g class="st1">
			<path class="st2" d="M352.1,220.4c-1,0-1.9-0.2-2.7-0.5c-0.8-0.4-1.5-0.8-2.1-1.5c-0.6-0.6-1.1-1.3-1.4-2.2s-0.5-1.7-0.5-2.7v0     c0-0.9,0.2-1.8,0.5-2.7s0.8-1.6,1.4-2.2c0.6-0.6,1.3-1.1,2.2-1.5c0.8-0.4,1.8-0.5,2.8-0.5c0.6,0,1.2,0.1,1.7,0.2s1,0.2,1.4,0.4     s0.8,0.4,1.2,0.7c0.4,0.3,0.7,0.5,1,0.8l-1.5,1.7c-0.5-0.5-1.1-0.9-1.7-1.2s-1.3-0.5-2-0.5c-0.6,0-1.2,0.1-1.8,0.4     c-0.5,0.2-1,0.6-1.4,1c-0.4,0.4-0.7,0.9-0.9,1.5c-0.2,0.6-0.3,1.2-0.3,1.8v0c0,0.6,0.1,1.3,0.3,1.8c0.2,0.6,0.5,1.1,0.9,1.5     c0.4,0.4,0.9,0.8,1.4,1c0.5,0.2,1.1,0.4,1.8,0.4c0.8,0,1.5-0.2,2.1-0.5c0.6-0.3,1.2-0.7,1.7-1.3l1.5,1.5c-0.3,0.4-0.7,0.7-1.1,1     c-0.4,0.3-0.8,0.5-1.2,0.7s-0.9,0.4-1.4,0.5C353.3,220.3,352.7,220.4,352.1,220.4z"/>
		</g>
		<g class="st1">
			<path class="st2" d="M360.6,206.4h2.5v2.2h-2.5V206.4z M360.7,210.1h2.3v10h-2.3V210.1z"/>
		</g>
		<g class="st1">
			<path class="st2" d="M367.1,210.1h2.3v1.6c0.2-0.2,0.3-0.5,0.5-0.7c0.2-0.2,0.4-0.4,0.7-0.6s0.5-0.3,0.9-0.4     c0.3-0.1,0.7-0.1,1.1-0.1c1.1,0,2,0.3,2.6,1c0.6,0.7,0.9,1.6,0.9,2.8v6.4h-2.3v-5.7c0-0.8-0.2-1.4-0.6-1.8     c-0.4-0.4-0.9-0.6-1.6-0.6c-0.7,0-1.2,0.2-1.6,0.7c-0.4,0.4-0.6,1-0.6,1.8v5.6h-2.3V210.1z"/>
		</g>
		<g class="st1">
			<path class="st2" d="M384.6,220.4c-0.7,0-1.4-0.1-2-0.4c-0.6-0.3-1.2-0.6-1.6-1.1c-0.5-0.5-0.8-1-1.1-1.6     c-0.3-0.6-0.4-1.3-0.4-2.1v0c0-0.7,0.1-1.4,0.4-2c0.2-0.6,0.6-1.2,1-1.7c0.4-0.5,1-0.8,1.5-1.1c0.6-0.3,1.3-0.4,2-0.4     c0.8,0,1.5,0.1,2.1,0.4c0.6,0.3,1.1,0.7,1.5,1.2c0.4,0.5,0.7,1.1,0.9,1.7c0.2,0.7,0.3,1.3,0.3,2.1c0,0.1,0,0.2,0,0.3     c0,0.1,0,0.2,0,0.3h-7.4c0.1,0.8,0.5,1.5,1,1.9c0.5,0.4,1.2,0.7,1.9,0.7c0.6,0,1.1-0.1,1.5-0.3c0.4-0.2,0.8-0.5,1.2-0.9l1.3,1.2     c-0.5,0.6-1.1,1-1.7,1.4C386.3,220.2,385.5,220.4,384.6,220.4z M386.9,214.4c0-0.4-0.1-0.7-0.2-1c-0.1-0.3-0.3-0.6-0.5-0.8     c-0.2-0.2-0.5-0.4-0.8-0.6c-0.3-0.1-0.6-0.2-1-0.2c-0.7,0-1.3,0.2-1.8,0.7c-0.5,0.5-0.7,1.1-0.8,1.9H386.9z"/>
		</g>
		<g class="st1">
			<path class="st2" d="M392.9,206.8h2.5l4,6.3l4-6.3h2.5v13.3h-2.3v-9.5l-4.2,6.3h-0.1l-4.2-6.2v9.5h-2.3V206.8z"/>
		</g>
		<g class="st1">
			<path class="st2" d="M415,220.4c-0.7,0-1.4-0.1-2-0.4c-0.6-0.3-1.2-0.6-1.6-1.1c-0.5-0.5-0.8-1-1.1-1.6c-0.3-0.6-0.4-1.3-0.4-2.1     v0c0-0.7,0.1-1.4,0.4-2c0.2-0.6,0.6-1.2,1-1.7c0.4-0.5,1-0.8,1.5-1.1c0.6-0.3,1.3-0.4,2-0.4c0.8,0,1.5,0.1,2.1,0.4     c0.6,0.3,1.1,0.7,1.5,1.2c0.4,0.5,0.7,1.1,0.9,1.7c0.2,0.7,0.3,1.3,0.3,2.1c0,0.1,0,0.2,0,0.3c0,0.1,0,0.2,0,0.3h-7.4     c0.1,0.8,0.5,1.5,1,1.9c0.5,0.4,1.2,0.7,1.9,0.7c0.6,0,1.1-0.1,1.5-0.3c0.4-0.2,0.8-0.5,1.2-0.9l1.3,1.2c-0.5,0.6-1.1,1-1.7,1.4     C416.7,220.2,415.9,220.4,415,220.4z M417.3,214.4c0-0.4-0.1-0.7-0.2-1c-0.1-0.3-0.3-0.6-0.5-0.8c-0.2-0.2-0.5-0.4-0.8-0.6     c-0.3-0.1-0.6-0.2-1-0.2c-0.7,0-1.3,0.2-1.8,0.7c-0.5,0.5-0.7,1.1-0.8,1.9H417.3z"/>
		</g>
		<g class="st1">
			<path class="st2" d="M427.6,220.4c-0.7,0-1.4-0.1-2.1-0.4c-0.6-0.3-1.2-0.6-1.6-1.1s-0.8-1-1.1-1.7c-0.3-0.6-0.4-1.3-0.4-2v0     c0-0.7,0.1-1.4,0.4-2c0.3-0.6,0.6-1.2,1.1-1.7c0.5-0.5,1-0.9,1.7-1.1c0.6-0.3,1.3-0.4,2.1-0.4c0.9,0,1.7,0.2,2.4,0.5     s1.2,0.7,1.6,1.3l-1.4,1.5c-0.4-0.4-0.7-0.7-1.1-0.9c-0.4-0.2-0.9-0.4-1.5-0.4c-0.4,0-0.8,0.1-1.2,0.3s-0.7,0.4-0.9,0.7     c-0.3,0.3-0.5,0.6-0.6,1c-0.1,0.4-0.2,0.8-0.2,1.2v0c0,0.4,0.1,0.9,0.2,1.3c0.1,0.4,0.4,0.7,0.6,1c0.3,0.3,0.6,0.5,1,0.7     c0.4,0.2,0.8,0.3,1.2,0.3c0.5,0,1-0.1,1.4-0.4c0.4-0.2,0.8-0.5,1.2-0.9l1.4,1.4c-0.5,0.6-1.1,1-1.7,1.4     C429.4,220.2,428.6,220.4,427.6,220.4z"/>
		</g>
		<g class="st1">
			<path class="st2" d="M442.1,206.8h9.8v2.1h-7.5v3.4h6.7v2.1h-6.7v3.6h7.6v2.1h-9.9V206.8z"/>
		</g>
		<g class="st1">
			<path class="st2" d="M459.6,220.3c-0.6,0-1.2-0.1-1.7-0.3c-0.6-0.2-1.1-0.6-1.5-1s-0.8-1-1-1.6c-0.3-0.6-0.4-1.4-0.4-2.2v0     c0-0.8,0.1-1.6,0.4-2.2c0.3-0.6,0.6-1.2,1-1.6s0.9-0.8,1.5-1c0.6-0.2,1.1-0.3,1.7-0.3c0.8,0,1.5,0.2,2,0.5s1,0.8,1.4,1.2v-5.4     h2.3v13.9H463l0-1.7c-0.4,0.5-0.8,1-1.4,1.3S460.4,220.3,459.6,220.3z M460.2,218.3c0.4,0,0.7-0.1,1.1-0.2     c0.4-0.2,0.7-0.4,0.9-0.7c0.3-0.3,0.5-0.6,0.6-1c0.2-0.4,0.2-0.8,0.2-1.3v0c0-0.5-0.1-0.9-0.2-1.3c-0.2-0.4-0.4-0.7-0.6-1     c-0.3-0.3-0.6-0.5-0.9-0.6c-0.4-0.2-0.7-0.2-1.1-0.2c-0.4,0-0.8,0.1-1.1,0.2c-0.3,0.1-0.7,0.4-0.9,0.6c-0.3,0.3-0.5,0.6-0.6,1     c-0.2,0.4-0.2,0.8-0.2,1.3v0c0,0.5,0.1,0.9,0.2,1.3c0.2,0.4,0.4,0.7,0.6,1c0.3,0.3,0.6,0.5,0.9,0.6     C459.4,218.3,459.8,218.3,460.2,218.3z"/>
		</g>
		<g class="st1">
			<path class="st2" d="M474,220.4c-0.7,0-1.4-0.1-2-0.4c-0.6-0.3-1.2-0.6-1.6-1.1c-0.5-0.5-0.8-1-1.1-1.6c-0.3-0.6-0.4-1.3-0.4-2.1     v0c0-0.7,0.1-1.4,0.4-2c0.2-0.6,0.6-1.2,1-1.7c0.4-0.5,1-0.8,1.5-1.1c0.6-0.3,1.3-0.4,2-0.4c0.8,0,1.5,0.1,2.1,0.4     c0.6,0.3,1.1,0.7,1.5,1.2c0.4,0.5,0.7,1.1,0.9,1.7c0.2,0.7,0.3,1.3,0.3,2.1c0,0.1,0,0.2,0,0.3c0,0.1,0,0.2,0,0.3h-7.4     c0.1,0.8,0.5,1.5,1,1.9c0.5,0.4,1.2,0.7,1.9,0.7c0.6,0,1.1-0.1,1.5-0.3c0.4-0.2,0.8-0.5,1.2-0.9l1.3,1.2c-0.5,0.6-1.1,1-1.7,1.4     C475.7,220.2,474.9,220.4,474,220.4z M476.2,214.4c0-0.4-0.1-0.7-0.2-1c-0.1-0.3-0.3-0.6-0.5-0.8c-0.2-0.2-0.5-0.4-0.8-0.6     c-0.3-0.1-0.6-0.2-1-0.2c-0.7,0-1.3,0.2-1.8,0.7c-0.5,0.5-0.7,1.1-0.8,1.9H476.2z"/>
		</g>
		<g class="st1">
			<path class="st2" d="M481.1,221.9c1.2-0.2,1.7-0.8,1.6-1.8h-1v-2.6h2.5v2.2c0,1.1-0.2,1.8-0.7,2.3s-1.2,0.8-2.2,0.8L481.1,221.9z     "/>
		</g>
		<g class="st1">
			<path class="st2" d="M495.2,206.8h2.2l7.1,9.2v-9.2h2.3v13.3h-2l-7.3-9.5v9.5h-2.3V206.8z"/>
		</g>
		<g class="st1">
			<path class="st2" d="M511.5,206.8h2.3V218h7v2.1h-9.3V206.8z"/>
		</g>
		<g class="st1">
			<path class="st3" d="M44,220.3c-1,0-2-0.2-2.8-0.5c-0.8-0.4-1.6-0.9-2.2-1.5c-0.6-0.6-1.1-1.3-1.4-2.2c-0.3-0.8-0.5-1.7-0.5-2.7     v0c0-0.9,0.2-1.8,0.5-2.7c0.3-0.8,0.8-1.6,1.4-2.2c0.6-0.6,1.4-1.1,2.2-1.5c0.8-0.4,1.8-0.6,2.8-0.6c1,0,2,0.2,2.8,0.5     c0.8,0.4,1.6,0.9,2.2,1.5c0.6,0.6,1.1,1.3,1.4,2.2c0.3,0.8,0.5,1.7,0.5,2.7v0c0,0.9-0.2,1.8-0.5,2.7c-0.3,0.8-0.8,1.6-1.4,2.2     s-1.4,1.1-2.2,1.5C46,220.1,45,220.3,44,220.3z M44.1,218.2c0.7,0,1.3-0.1,1.8-0.4c0.5-0.2,1-0.6,1.4-1c0.4-0.4,0.7-0.9,0.9-1.5     c0.2-0.6,0.3-1.2,0.3-1.8v0c0-0.6-0.1-1.3-0.3-1.8c-0.2-0.6-0.5-1.1-0.9-1.5c-0.4-0.4-0.9-0.8-1.4-1c-0.6-0.3-1.2-0.4-1.8-0.4     c-0.7,0-1.3,0.1-1.8,0.4c-0.5,0.2-1,0.6-1.4,1c-0.4,0.4-0.7,0.9-0.9,1.5c-0.2,0.6-0.3,1.2-0.3,1.8v0c0,0.6,0.1,1.3,0.3,1.8     c0.2,0.6,0.5,1.1,0.9,1.5c0.4,0.4,0.9,0.8,1.4,1C42.8,218,43.4,218.2,44.1,218.2z"/>
		</g>
		<g class="st1">
			<path class="st3" d="M59.3,220.3c-0.7,0-1.4-0.1-2.1-0.4s-1.2-0.6-1.6-1.1c-0.5-0.5-0.8-1-1.1-1.7c-0.3-0.6-0.4-1.3-0.4-2v0     c0-0.7,0.1-1.4,0.4-2c0.3-0.6,0.6-1.2,1.1-1.7c0.5-0.5,1-0.9,1.7-1.1c0.6-0.3,1.3-0.4,2.1-0.4c0.9,0,1.7,0.2,2.4,0.5     s1.2,0.7,1.6,1.3l-1.4,1.5c-0.4-0.4-0.7-0.7-1.1-0.9c-0.4-0.2-0.9-0.4-1.5-0.4c-0.4,0-0.8,0.1-1.2,0.3s-0.7,0.4-0.9,0.7     c-0.3,0.3-0.5,0.6-0.6,1c-0.1,0.4-0.2,0.8-0.2,1.2v0c0,0.4,0.1,0.9,0.2,1.3c0.1,0.4,0.4,0.7,0.6,1s0.6,0.5,1,0.7     c0.4,0.2,0.8,0.3,1.2,0.3c0.5,0,1-0.1,1.4-0.4s0.8-0.5,1.2-0.9l1.4,1.4c-0.5,0.6-1.1,1-1.7,1.4C61.1,220.1,60.3,220.3,59.3,220.3     z"/>
		</g>
		<g class="st1">
			<path class="st3" d="M70.2,220.2c-0.4,0-0.8-0.1-1.2-0.2c-0.4-0.1-0.7-0.3-0.9-0.5c-0.3-0.2-0.5-0.5-0.6-0.9     c-0.1-0.4-0.2-0.8-0.2-1.4V212H66v-2h1.3v-2.8h2.3v2.8h2.7v2h-2.7v4.9c0,0.4,0.1,0.8,0.3,1c0.2,0.2,0.5,0.3,0.9,0.3     c0.5,0,1-0.1,1.4-0.3v1.9c-0.3,0.2-0.6,0.3-0.9,0.4S70.7,220.2,70.2,220.2z"/>
		</g>
		<g class="st1">
			<path class="st3" d="M80.2,220.3c-0.8,0-1.5-0.1-2.1-0.4c-0.7-0.3-1.2-0.6-1.7-1.1c-0.5-0.5-0.8-1-1.1-1.7     c-0.3-0.6-0.4-1.3-0.4-2v0c0-0.7,0.1-1.4,0.4-2c0.3-0.6,0.6-1.2,1.1-1.7c0.5-0.5,1-0.9,1.7-1.1c0.7-0.3,1.4-0.4,2.1-0.4     c0.8,0,1.5,0.1,2.1,0.4c0.7,0.3,1.2,0.6,1.7,1.1c0.5,0.5,0.8,1,1.1,1.7s0.4,1.3,0.4,2v0c0,0.7-0.1,1.4-0.4,2     c-0.3,0.6-0.6,1.2-1.1,1.7c-0.5,0.5-1,0.9-1.7,1.1C81.7,220.2,81,220.3,80.2,220.3z M80.2,218.3c0.5,0,0.9-0.1,1.3-0.3     c0.4-0.2,0.7-0.4,1-0.7s0.5-0.6,0.6-1c0.1-0.4,0.2-0.8,0.2-1.2v0c0-0.4-0.1-0.9-0.2-1.3s-0.4-0.7-0.6-1c-0.3-0.3-0.6-0.5-1-0.7     c-0.4-0.2-0.8-0.3-1.2-0.3c-0.5,0-0.9,0.1-1.2,0.3c-0.4,0.2-0.7,0.4-1,0.7c-0.3,0.3-0.5,0.6-0.6,1s-0.2,0.8-0.2,1.2v0     c0,0.4,0.1,0.9,0.2,1.2c0.2,0.4,0.4,0.7,0.6,1c0.3,0.3,0.6,0.5,1,0.7C79.4,218.2,79.8,218.3,80.2,218.3z"/>
		</g>
		<g class="st1">
			<path class="st3" d="M94.7,220.3c-0.8,0-1.5-0.2-2-0.5c-0.5-0.4-1-0.8-1.3-1.2v1.6H89v-13.9h2.3l0,5.5c0.4-0.5,0.8-1,1.4-1.3     c0.5-0.4,1.2-0.5,2-0.5c0.6,0,1.2,0.1,1.7,0.3c0.6,0.2,1.1,0.6,1.5,1c0.4,0.4,0.8,1,1.1,1.6c0.3,0.6,0.4,1.4,0.4,2.2v0     c0,0.8-0.1,1.6-0.4,2.2c-0.3,0.6-0.6,1.2-1,1.6c-0.4,0.4-0.9,0.8-1.5,1C95.9,220.2,95.3,220.3,94.7,220.3z M94.2,218.3     c0.4,0,0.8-0.1,1.1-0.2c0.3-0.2,0.7-0.4,0.9-0.6s0.5-0.6,0.6-1c0.2-0.4,0.2-0.8,0.2-1.3v0c0-0.5-0.1-0.9-0.2-1.3s-0.4-0.7-0.6-1     c-0.3-0.3-0.6-0.5-0.9-0.6c-0.3-0.2-0.7-0.2-1.1-0.2s-0.8,0.1-1.1,0.2c-0.4,0.2-0.7,0.4-0.9,0.7s-0.5,0.6-0.6,1s-0.2,0.8-0.2,1.3     v0c0,0.5,0.1,0.9,0.2,1.3c0.2,0.4,0.4,0.7,0.6,1c0.3,0.3,0.6,0.5,0.9,0.6C93.4,218.2,93.8,218.3,94.2,218.3z"/>
		</g>
		<g class="st1">
			<path class="st3" d="M107.5,220.3c-0.7,0-1.4-0.1-2-0.4c-0.6-0.3-1.2-0.6-1.6-1.1s-0.8-1-1.1-1.6s-0.4-1.3-0.4-2.1v0     c0-0.7,0.1-1.4,0.4-2s0.6-1.2,1-1.7c0.4-0.5,1-0.8,1.5-1.1s1.3-0.4,2-0.4c0.8,0,1.5,0.1,2.1,0.4c0.6,0.3,1.1,0.7,1.5,1.2     s0.7,1.1,0.9,1.7s0.3,1.3,0.3,2.1c0,0.1,0,0.2,0,0.3s0,0.2,0,0.3h-7.4c0.1,0.8,0.5,1.5,1,1.9c0.5,0.4,1.2,0.7,1.9,0.7     c0.6,0,1.1-0.1,1.5-0.3c0.4-0.2,0.8-0.5,1.2-0.9l1.3,1.2c-0.5,0.6-1.1,1-1.7,1.4C109.2,220.1,108.4,220.3,107.5,220.3z      M109.7,214.4c0-0.4-0.1-0.7-0.2-1c-0.1-0.3-0.3-0.6-0.5-0.8s-0.5-0.4-0.8-0.6c-0.3-0.1-0.6-0.2-1-0.2c-0.7,0-1.3,0.2-1.8,0.7     c-0.5,0.5-0.7,1.1-0.8,1.9H109.7z"/>
		</g>
		<g class="st1">
			<path class="st3" d="M115.4,210h2.3v2.3c0.3-0.8,0.8-1.4,1.3-1.8c0.6-0.5,1.3-0.7,2.2-0.6v2.4h-0.1c-0.5,0-1,0.1-1.4,0.2     c-0.4,0.2-0.8,0.4-1.1,0.7s-0.5,0.7-0.7,1.2c-0.2,0.5-0.2,1.1-0.2,1.7v3.8h-2.3V210z"/>
		</g>
		<g class="st1">
			<path class="st3" d="M133.2,209.1l-2.4,0.7l-0.5-1.9l3.6-1.1h1.6v13.4h-2.3V209.1z"/>
		</g>
		<g class="st1">
			<path class="st3" d="M139.9,213.1h5.6v2.3h-5.6V213.1z"/>
		</g>
		<g class="st1">
			<path class="st3" d="M147.9,218.2l4.6-3.9c0.5-0.4,0.8-0.7,1.2-1c0.3-0.3,0.6-0.6,0.8-0.9s0.3-0.5,0.4-0.8     c0.1-0.3,0.1-0.5,0.1-0.9c0-0.7-0.2-1.2-0.6-1.5s-0.9-0.5-1.5-0.5s-1.1,0.2-1.6,0.5c-0.5,0.3-1,0.8-1.5,1.5l-1.7-1.3     c0.3-0.4,0.6-0.8,1-1.2s0.7-0.6,1.1-0.9c0.4-0.2,0.8-0.4,1.3-0.5s1-0.2,1.6-0.2c0.6,0,1.2,0.1,1.8,0.3c0.5,0.2,1,0.5,1.4,0.8     c0.4,0.3,0.7,0.8,0.9,1.3c0.2,0.5,0.3,1,0.3,1.6v0c0,0.5-0.1,1-0.2,1.4c-0.1,0.4-0.4,0.8-0.6,1.2c-0.3,0.4-0.6,0.8-1.1,1.2     c-0.4,0.4-0.9,0.8-1.5,1.3l-2.7,2.3h6.3v2.1h-9.6V218.2z"/>
		</g>
		<g class="st1">
			<path class="st3" d="M160.7,213.1h5.6v2.3h-5.6V213.1z"/>
		</g>
		<g class="st1">
			<path class="st3" d="M173.9,220.3c-1.2,0-2.2-0.2-3-0.7c-0.8-0.4-1.5-1-2.1-1.7l1.6-1.5c0.5,0.6,1,1,1.5,1.3s1.2,0.4,1.9,0.4     c0.7,0,1.2-0.2,1.6-0.6s0.7-0.9,0.7-1.5v0c0-0.7-0.3-1.2-0.8-1.5c-0.6-0.4-1.3-0.5-2.2-0.5h-1.1l-0.4-1.5l3.6-3.8h-5.8v-2h8.8     v1.7l-3.7,3.8c0.5,0.1,1,0.2,1.5,0.4s0.9,0.4,1.2,0.7c0.4,0.3,0.7,0.7,0.9,1.1c0.2,0.4,0.3,1,0.3,1.6v0c0,0.6-0.1,1.2-0.3,1.7     c-0.2,0.5-0.5,1-1,1.3c-0.4,0.4-0.9,0.7-1.5,0.9C175.2,220.2,174.6,220.3,173.9,220.3z"/>
			<path class="st3" d="M189.9,204.9h1.8v17.6h-1.8V204.9z"/>
		</g>
		<g class="st1">
			<path class="st3" d="M202.9,218.2l4.6-3.9c0.5-0.4,0.8-0.7,1.2-1c0.3-0.3,0.6-0.6,0.8-0.9s0.3-0.5,0.4-0.8     c0.1-0.3,0.1-0.5,0.1-0.9c0-0.7-0.2-1.2-0.6-1.5s-0.9-0.5-1.5-0.5s-1.1,0.2-1.6,0.5c-0.5,0.3-1,0.8-1.5,1.5l-1.7-1.3     c0.3-0.4,0.6-0.8,1-1.2s0.7-0.6,1.1-0.9c0.4-0.2,0.8-0.4,1.3-0.5s1-0.2,1.6-0.2c0.6,0,1.2,0.1,1.8,0.3c0.5,0.2,1,0.5,1.4,0.8     c0.4,0.3,0.7,0.8,0.9,1.3c0.2,0.5,0.3,1,0.3,1.6v0c0,0.5-0.1,1-0.2,1.4c-0.1,0.4-0.4,0.8-0.6,1.2c-0.3,0.4-0.6,0.8-1.1,1.2     c-0.4,0.4-0.9,0.8-1.5,1.3l-2.7,2.3h6.3v2.1h-9.6V218.2z"/>
		</g>
		<g class="st1">
			<path class="st3" d="M221.5,220.3c-0.9,0-1.7-0.2-2.4-0.5s-1.3-0.8-1.8-1.5c-0.5-0.6-0.9-1.3-1.2-2.2c-0.3-0.8-0.4-1.7-0.4-2.7v0     c0-0.9,0.1-1.8,0.4-2.7c0.3-0.8,0.7-1.6,1.2-2.2c0.5-0.6,1.1-1.1,1.8-1.5c0.7-0.4,1.5-0.5,2.4-0.5s1.7,0.2,2.4,0.5     s1.3,0.8,1.8,1.5c0.5,0.6,0.9,1.3,1.2,2.2c0.3,0.8,0.4,1.7,0.4,2.7v0c0,1-0.1,1.8-0.4,2.7s-0.7,1.6-1.2,2.2     c-0.5,0.6-1.1,1.1-1.8,1.5C223.2,220.1,222.4,220.3,221.5,220.3z M221.5,218.2c0.5,0,1-0.1,1.4-0.4c0.4-0.2,0.8-0.6,1.1-1     c0.3-0.4,0.5-0.9,0.7-1.5c0.2-0.6,0.2-1.2,0.2-1.9v0c0-0.7-0.1-1.3-0.2-1.9c-0.2-0.6-0.4-1.1-0.7-1.5c-0.3-0.4-0.6-0.8-1.1-1     c-0.4-0.3-0.9-0.4-1.4-0.4c-0.5,0-1,0.1-1.4,0.4s-0.8,0.6-1.1,1c-0.3,0.4-0.5,0.9-0.7,1.5c-0.2,0.6-0.2,1.2-0.2,1.9v0     c0,0.7,0.1,1.3,0.2,1.9c0.2,0.6,0.4,1.1,0.7,1.5c0.3,0.4,0.7,0.8,1.1,1C220.6,218.1,221,218.2,221.5,218.2z"/>
		</g>
		<g class="st1">
			<path class="st3" d="M232.6,209.1l-2.4,0.7l-0.5-1.9l3.6-1.1h1.6v13.4h-2.3V209.1z"/>
		</g>
		<g class="st1">
			<path class="st3" d="M244.1,220.3c-0.7,0-1.4-0.1-2-0.3c-0.6-0.2-1.2-0.4-1.6-0.8s-0.8-0.7-1.1-1.2c-0.3-0.5-0.4-1-0.4-1.6v0     c0-0.8,0.2-1.5,0.6-2s1-0.9,1.8-1.3c-0.6-0.3-1-0.7-1.4-1.1c-0.4-0.5-0.5-1.1-0.5-1.8v0c0-0.5,0.1-1,0.4-1.4     c0.2-0.4,0.6-0.8,1-1.1c0.4-0.3,0.9-0.6,1.5-0.8c0.6-0.2,1.2-0.3,1.9-0.3c0.7,0,1.3,0.1,1.8,0.3c0.6,0.2,1.1,0.4,1.5,0.8     c0.4,0.3,0.7,0.7,1,1.1s0.4,0.9,0.4,1.4v0c0,0.7-0.2,1.4-0.5,1.8c-0.4,0.5-0.8,0.8-1.4,1.1c0.7,0.3,1.3,0.7,1.7,1.2     c0.4,0.5,0.7,1.1,0.7,1.9v0c0,0.6-0.1,1.1-0.4,1.6c-0.3,0.5-0.6,0.9-1.1,1.2c-0.5,0.3-1,0.6-1.6,0.8S244.8,220.3,244.1,220.3z      M244.1,218.3c0.9,0,1.6-0.2,2.1-0.6c0.5-0.4,0.7-0.9,0.7-1.4v0c0-0.3-0.1-0.6-0.2-0.8c-0.1-0.2-0.3-0.5-0.6-0.6     c-0.2-0.2-0.5-0.3-0.9-0.4c-0.3-0.1-0.7-0.1-1.1-0.1s-0.8,0-1.1,0.1c-0.3,0.1-0.6,0.2-0.9,0.4c-0.2,0.2-0.4,0.4-0.6,0.6     c-0.1,0.2-0.2,0.5-0.2,0.8v0c0,0.5,0.2,1,0.7,1.4C242.5,218.1,243.2,218.3,244.1,218.3z M244.1,212.4c0.7,0,1.3-0.2,1.7-0.6     c0.4-0.4,0.7-0.8,0.7-1.4v0c0-0.5-0.2-1-0.6-1.3c-0.4-0.4-1-0.5-1.7-0.5c-0.7,0-1.3,0.2-1.7,0.5c-0.4,0.4-0.6,0.8-0.6,1.3v0     c0,0.6,0.2,1.1,0.7,1.4C242.9,212.2,243.4,212.4,244.1,212.4z"/>
		</g>
	</g>
</g>
<path class="st0" d="M539.3,44.9V34.7h4.4c0.8,0,1.6,0.1,2.3,0.3c0.5,0.1,0.8,0.5,1.2,1c0.3,0.5,0.4,1.1,0.4,1.6  c0,0.7-0.2,1.4-0.7,1.9c-0.5,0.6-1.3,0.9-2,1c0.4,0.2,0.8,0.5,1.1,0.8c0.5,0.5,0.9,1.1,1.2,1.6l1.2,2H546l-1.5-2.2  c-0.5-0.8-1-1.2-1.1-1.5c-0.1-0.3-0.4-0.4-0.7-0.4c-0.3-0.1-0.7-0.2-1.1-0.1h-0.4v4.2L539.3,44.9z M541.3,39h1.5  c0.6,0.1,1.3,0,1.9-0.1c0.2-0.1,0.4-0.2,0.5-0.4c0.2-0.2,0.3-0.5,0.3-0.8c0-0.3-0.1-0.6-0.3-0.8c-0.2-0.3-0.5-0.5-0.8-0.4h-3.1  C541.3,36.5,541.3,39,541.3,39z"/>
<path class="st0" d="M543.4,50.5c-5.9,0-10.6-4.8-10.6-10.6s4.8-10.6,10.6-10.6S554,34,554,39.9c0,0,0,0,0,0  C554,45.7,549.3,50.5,543.4,50.5z M543.4,31c-4.8,0-8.7,3.9-8.7,8.7c0,4.8,3.9,8.7,8.7,8.7c4.8,0,8.7-3.9,8.7-8.7c0,0,0,0,0,0  C552.1,34.9,548.3,31,543.4,31C543.4,31,543.4,31,543.4,31z"/>
</svg>