<?xml version="1.0" encoding="UTF-8"?>
<!-- Generator: Adobe Illustrator 21.1.0, SVG Export Plug-In . SVG Version: 6.00 Build 0)  -->
<svg version="1.1" id="Layer_1" xmlns="http://www.w3.org/2000/svg" xmlns:xlink="http://www.w3.org/1999/xlink" x="0px" y="0px" viewBox="0 0 367.7 140.8" style="enable-background:new 0 0 367.7 140.8;" xml:space="preserve">
<style type="text/css">
	.st0{fill:#FCF6EF;}
	.st1{fill:#91AD3D;}
	.st2{fill:#FAC212;}
</style>
<title>logo@4x</title>
<path class="st0" d="M83.6,11.7c-4.6,6.4-7.1,14.2-7,22.1c-0.1,8,2.4,15.7,7,22.2c2.4,3.3,5.5,6.1,9.1,8.2c3.8,2.1,8,3.2,12.3,3.3  v-3c-3.8,0-7.5-1-10.8-3c-3.2-1.8-6-4.3-8.2-7.3c-4.3-5.9-6.5-13.1-6.4-20.3c-0.1-7.3,2.2-14.4,6.4-20.3c2.2-3,5-5.5,8.2-7.3  c3.3-1.9,7-2.9,10.8-2.9v-3c-4.3,0-8.5,1.1-12.3,3.2C89.1,5.6,86,8.4,83.6,11.7z"/>
<path class="st0" d="M89.7,16.2c-3.6,5.2-5.6,11.3-5.5,17.6c-0.1,6.3,1.9,12.5,5.5,17.6c1.8,2.5,4.1,4.5,6.8,6.1  c2.6,1.5,5.6,2.4,8.6,2.4v-3c-2.5,0-4.9-0.7-7.1-2c-2.3-1.3-4.2-3.1-5.8-5.2c-3.3-4.6-5-10.2-4.9-15.9c-0.1-5.7,1.6-11.3,4.9-15.9  c1.6-2.1,3.6-3.9,5.8-5.2c2.1-1.3,4.6-1.9,7.1-1.9v-3c-3-0.1-6,0.7-8.6,2.3C93.7,11.7,91.5,13.8,89.7,16.2z"/>
<path class="st0" d="M181,4.4c-2.7-3-6.8-4.1-10.4-4.1c-3.8-0.1-7.5,1.3-10.1,4.1c-3.2,2.9-5,7-5,11.3v37c0,4.3,1.8,8.4,5,11.3  c2.8,2.5,6.4,3.8,10.1,3.7c3.8,0,7.5-1.3,10.4-3.7c3.2-2.9,5-7,5-11.3v-37C186,11.4,184.2,7.3,181,4.4z M183.2,52.7  c0.1,6.7-5.3,12.1-12,12.2c-0.2,0-0.4,0-0.6,0c-3,0.2-6-0.9-8.3-3c-2.6-2.3-4.1-5.6-4.1-9.1v-37c0-3.5,1.4-6.8,4.1-9.1  c2.2-2.2,5.2-3.4,8.3-3.4c3.2,0,6.2,1.2,8.5,3.4c2.6,2.3,4.1,5.6,4.1,9.1V52.7z"/>
<path class="st0" d="M176,9.8c-1.5-1.3-3.4-2-5.4-1.9c-2,0-4,0.6-5.5,1.9c-1.7,1.5-2.6,3.7-2.6,5.9v37c0,2.3,1,4.4,2.6,5.9  c1.5,1.3,3.5,2,5.5,1.9c2,0.1,3.9-0.6,5.4-1.9c1.9-1.4,3-3.6,3-5.9v-37C179,13.4,177.9,11.2,176,9.8z M175.8,52.7  c0,1.4-0.6,2.8-1.7,3.7c-1,0.9-2.2,1.3-3.6,1.3c-1.3,0-2.6-0.4-3.6-1.3c-1.1-0.9-1.7-2.3-1.7-3.7v-37c0-1.4,0.6-2.8,1.7-3.7  c1-0.9,2.3-1.3,3.6-1.3c1.3,0,2.6,0.4,3.5,1.3c1.1,0.9,1.7,2.3,1.7,3.7L175.8,52.7z"/>
<polygon class="st0" points="0,3.3 19,3.3 19,7.6 0,7.6 0,10.8 11.5,10.8 11.5,67.7 14.6,67.7 14.6,10.8 19,10.8 19,11.2 19,67.7   22.1,67.7 22.1,11.5 22.1,10.8 33.6,10.8 33.6,7.6 22.1,7.6 22.1,3.3 33.6,3.3 33.6,0.2 0,0.2 "/>
<path class="st0" d="M41.8,0.3L41.8,0.3v56.9l0,0v3.1l0,0v7.3l0,0v0.2h26.5v-3.1H52.4v-4.3h15.9v-3.1H52.4V39.6h15.9v-3.1h-19v20.8  h-4.4V32.2h23.4V29H52.4V10.9h15.9V7.7h-19v3.1l0,0V29h-4.4V3.4h23.4V0.3L41.8,0.3L41.8,0.3z M49.3,60.3v4.3h-4.4v-4.3L49.3,60.3z"/>
<polygon class="st0" points="115.3,39.2 109,39.2 109,42.3 115.3,42.3 115.3,46.6 109,46.6 109,49.7 115.3,49.7 115.3,67.7   118.4,67.7 118.4,0.3 115.3,0.3 "/>
<path class="st0" d="M142.6,39.2h-4.4V0.3h-3.1v38.9H126V0.3h-3.1v67.4h3.1V49.7h9.1v17.9h3.1V49.7h4.4v17.9h3.1V0.3h-3.1  L142.6,39.2z M126,46.6v-4.3h9.1v4.3H126z M138.2,46.6v-4.3h4.4v4.3H138.2z"/>
<path class="st0" d="M263.4,4c-2.7-3-6.8-4.1-10.4-4.1c-3.8-0.1-7.5,1.3-10.1,4.1c-3.2,2.9-5,7-5,11.3v14.8l-4.8-2.7l-1.6,2.7  l6.4,3.6v5l0,0l-4.8-2.7l-1.6,2.7l6.3,3.6v25.1h2.8V43.9l4.2,2.4v21.1h2.8V47.9l0.1,0.1l5.2,3l1.1,0.7l0,0l4.1,2.3v13.4h3.1V52.1  l-3.1-1.8l-9.8-5.6l0,0l-0.7-0.4v-5l2.8,1.6l0,0l7.8,4.4l3.1,1.8V15.4c0-2.3-1.1-4.5-3-5.9c-1.5-1.3-3.4-2-5.3-1.9  c-2,0-4,0.6-5.5,1.9c-1.7,1.5-2.6,3.7-2.6,5.9v18.8l0,0l-4.2-2.4V15.4c0-3.5,1.4-6.8,4.1-9.1c2.2-2.2,5.2-3.4,8.3-3.4  c3.2,0,6.2,1.2,8.5,3.4c2.6,2.3,4.1,5.6,4,9.1v52h2.8v-52C268.4,11.1,266.6,7,263.4,4z M247.7,15.4c0-1.4,0.6-2.8,1.7-3.7  c1-0.9,2.3-1.3,3.6-1.3c1.3,0,2.6,0.4,3.5,1.3c1.1,0.9,1.7,2.3,1.7,3.7v26.4l-10.6-6L247.7,15.4z M244.9,37.7v5l-4.2-2.4v-5  L244.9,37.7z"/>
<path class="st0" d="M359.8,4c-2.7-3-6.8-4.1-10.4-4.1c-3.8-0.1-7.5,1.3-10.1,4.1c-3.2,2.9-5,7-5,11.3v14.8l-4.8-2.7l-1.5,2.7  l6.4,3.6v5l0,0l-4.8-2.7l-1.6,2.7l6.3,3.6v25.1h2.8V43.9l4.2,2.4v21.1h2.8V47.9l0.1,0.1l5.2,3l1.1,0.7l0,0l4.1,2.3v13.4h3.1V52.1  l-3.1-1.8l-9.8-5.6l0,0l-0.7-0.4v-5l2.8,1.6l0,0l7.8,4.4l3.1,1.8V15.4c0-2.3-1.1-4.5-3-5.9c-1.5-1.3-3.4-2-5.4-1.9  c-2,0-3.9,0.7-5.4,1.9c-1.7,1.5-2.6,3.7-2.6,5.9v18.8l0,0l-4.2-2.4V15.4c0-3.5,1.4-6.8,4-9.1c2.2-2.2,5.2-3.4,8.3-3.4  c3.2,0,6.2,1.2,8.5,3.4c2.6,2.3,4,5.6,4,9.1v52h2.8v-52C364.8,11.1,363,7,359.8,4z M344.1,15.4c0-1.4,0.6-2.8,1.7-3.7  c1-0.9,2.3-1.3,3.6-1.3c1.3,0,2.6,0.4,3.5,1.3c1.1,0.9,1.7,2.3,1.7,3.7v26.4l-10.5-6L344.1,15.4z M341.3,37.7v5l-4.2-2.4v-5  L341.3,37.7z"/>
<path class="st0" d="M223.8,19.3c-0.4-1.1-0.8-2.2-1.3-3.2l0,0c-0.1-0.3-0.3-0.6-0.4-0.9s-0.3-0.6-0.4-0.8s-0.3-0.6-0.5-0.8  l-0.4-0.6c-0.1-0.2-0.3-0.5-0.5-0.7l-0.4-0.6l-0.5-0.7l-0.4-0.6l-0.5-0.6L218,9.3l-0.6-0.7L217,8.2c-0.3-0.3-0.5-0.5-0.8-0.8  l-0.3-0.3c-0.4-0.3-0.8-0.7-1.2-1L214.4,6c-0.3-0.2-0.6-0.5-1-0.7L213.1,5l-0.9-0.6l-0.5-0.3l-0.9-0.5l-0.5-0.2l-0.9-0.5L209,2.7  c-0.4-0.2-0.7-0.3-1.1-0.5l-0.4-0.1c-0.5-0.2-1-0.4-1.5-0.5H206c-0.6-0.2-1.3-0.4-1.9-0.6l-0.6-0.2c-0.5-0.1-1.1-0.2-1.7-0.3  l-0.7-0.1c-0.4-0.1-0.8-0.1-1.3-0.1l0,0c-1.1-0.1-2.2-0.1-3.2-0.1l15.3,36.2c-0.9,1.5-2,2.8-3.3,4l-0.2,0.2L195.3,9.1v58.5h3V24.2  l4.6,10.8l0.1,0.3v32.3h3V54c1.5-0.5,2.9-1.1,4.2-1.8l6.5,15.5h3.3l-8.4-19.9c-1.7,1.3-3.6,2.3-5.7,3v-5.2  c7.5-3.6,12-11.4,11.4-19.7c-0.6-7.1-5-13.3-11.4-16.4l0,0c-0.3-0.2-0.7-0.3-1-0.4L204.9,9c-0.4-0.2-0.9-0.4-1.4-0.5l0,0l-2.1-5  c0.5,0.1,1,0.2,1.5,0.3l0.4,0.1c0.4,0.1,0.7,0.2,1.1,0.3l0.5,0.2l0.9,0.3l0.5,0.2l0.9,0.3l0.5,0.2l0.8,0.4L209,6l0.8,0.4l0.5,0.3  l0.8,0.5l0.5,0.3l0.7,0.5l0.4,0.3l0.7,0.6l0.4,0.3c0.3,0.2,0.5,0.5,0.8,0.7l0.3,0.3c0.3,0.3,0.7,0.7,1,1l0,0c0.3,0.4,0.7,0.7,1,1.1  l0.2,0.3c0.2,0.3,0.4,0.6,0.6,0.9l0.3,0.4c0.2,0.3,0.4,0.5,0.5,0.8l0.3,0.5c0.4,0.8,0.8,1.6,1.2,2.5c3.4,7.9,2.5,17-2.4,24.1  c-0.7,0.9-1.4,1.7-2.2,2.6l9.7,23h3.3l-9.5-22.5C224.7,37.9,226.6,28.2,223.8,19.3z M206.7,13.3c1,0.6,2,1.4,2.8,2.2  c4.4,4.5,6,11,4.1,17l0,0l-7.5-17.9l-0.1-0.2V13l0,0L206.7,13.3z"/>
<polygon class="st0" points="278.4,8 278.4,67.8 281.4,67.8 281.4,19.1 286.2,25.5 285.9,25 285.9,39.6 285.9,46.5 285.9,53.5   285.9,60 285.9,67.8 289,67.8 289,54.3 289,47.4 289,40.4 289,29.6 288.4,28.5 300,44 310.6,29.6 310.6,40.4 310.6,47.4 310.6,54.3   310.6,67.8 313.8,67.8 313.8,60 313.8,53.5 313.8,46.5 313.8,39.6 313.8,25.5 318.2,19.5 318.2,67.8 321.3,67.8 321.3,8.4 300,38.4   "/>
<polygon class="st0" points="300,25.7 282.2,0.4 278,0.4 300,31.4 321.9,0.4 317.6,0.4 "/>
<path class="st1" d="M232.4,128.5h1.6l4.4,10h-1.9l-1-2.4h-4.7l-1,2.4H228L232.4,128.5z M234.9,134.6l-1.7-4l-1.7,4H234.9z"/>
<path class="st1" d="M240.7,131h1.7v1.2c0.1-0.2,0.3-0.4,0.4-0.5c0.2-0.2,0.3-0.3,0.5-0.4c0.2-0.1,0.4-0.2,0.6-0.2  c0.3-0.1,0.5-0.1,0.8-0.1c0.8-0.1,1.5,0.2,2,0.8c0.5,0.6,0.7,1.3,0.7,2.1v4.8h-1.7v-4.2c0-0.5-0.1-1-0.4-1.4  c-0.3-0.3-0.7-0.5-1.2-0.5c-0.5,0-0.9,0.2-1.2,0.5c-0.3,0.4-0.5,0.9-0.5,1.4v4.2h-1.7L240.7,131z"/>
<path class="st1" d="M252.8,138.7c-0.3,0-0.6,0-0.9-0.1c-0.3-0.1-0.5-0.2-0.7-0.4c-0.2-0.2-0.4-0.4-0.4-0.7c-0.1-0.3-0.2-0.7-0.2-1  v-4h-1V131h1v-2h1.7v2h2v1.5h-2v3.7c0,0.3,0.1,0.5,0.2,0.7c0.2,0.2,0.4,0.2,0.7,0.2c0.4,0,0.7-0.1,1.1-0.3v1.4  c-0.2,0.1-0.5,0.2-0.7,0.3C253.4,138.6,253.1,138.7,252.8,138.7z"/>
<path class="st1" d="M256.4,131h1.8l1.5,5.1l1.7-5.2h1.5l1.7,5.2l1.5-5.1h1.7l-2.5,7.6h-1.5l-1.7-5.1l-1.7,5.1h-1.5L256.4,131z"/>
<path class="st1" d="M273.3,138.7c-0.5,0-1-0.1-1.5-0.3c-0.9-0.4-1.6-1.1-2-2c-0.2-0.5-0.3-1-0.3-1.6l0,0c0-0.5,0.1-1,0.3-1.5  c0.2-0.5,0.4-0.9,0.8-1.2c0.3-0.4,0.7-0.6,1.2-0.8c0.5-0.2,1-0.3,1.5-0.3c0.5,0,1.1,0.1,1.6,0.3c0.4,0.2,0.8,0.5,1.1,0.9  c0.3,0.4,0.5,0.8,0.7,1.3c0.2,0.5,0.2,1,0.2,1.5c0,0.1,0,0.1,0,0.2s0,0.2,0,0.2h-5.5c0.1,0.5,0.3,1,0.7,1.4c0.4,0.3,0.9,0.5,1.4,0.5  c0.4,0,0.8-0.1,1.1-0.2c0.3-0.2,0.7-0.4,0.9-0.7l1,0.9c-0.4,0.4-0.8,0.8-1.3,1C274.5,138.6,273.9,138.7,273.3,138.7z M275,134.2  c0-0.3-0.1-0.5-0.2-0.8c-0.1-0.2-0.2-0.4-0.4-0.6c-0.2-0.2-0.4-0.3-0.6-0.4c-0.2-0.1-0.5-0.2-0.8-0.2c-0.5,0-1,0.2-1.3,0.6  c-0.4,0.4-0.6,0.9-0.6,1.4L275,134.2z"/>
<path class="st1" d="M279.3,131h1.7v1.7c0.2-0.5,0.6-1,1-1.4c0.5-0.4,1.1-0.5,1.6-0.5v1.8h-0.1c-0.3,0-0.7,0.1-1,0.2  c-0.3,0.1-0.6,0.3-0.8,0.6c-0.2,0.3-0.4,0.6-0.5,0.9c-0.1,0.4-0.2,0.9-0.2,1.3v2.9h-1.7L279.3,131z"/>
<path class="st1" d="M285.9,131h1.7v1.2c0.3-0.4,0.6-0.7,1-1c0.5-0.3,1-0.4,1.5-0.4c0.4,0,0.9,0.1,1.3,0.3c0.4,0.2,0.8,0.4,1.1,0.8  c0.3,0.4,0.6,0.8,0.8,1.2c0.2,0.5,0.3,1.1,0.3,1.7l0,0c0,0.6-0.1,1.1-0.3,1.7c-0.2,0.5-0.4,0.9-0.8,1.2c-0.3,0.3-0.7,0.6-1.1,0.8  c-0.4,0.2-0.9,0.3-1.3,0.3c-0.5,0-1.1-0.1-1.5-0.4c-0.4-0.2-0.7-0.6-1-0.9v3.4h-1.7L285.9,131z M289.8,137.2c0.3,0,0.6-0.1,0.8-0.2  c0.3-0.1,0.5-0.3,0.7-0.5c0.2-0.2,0.4-0.5,0.5-0.8c0.1-0.3,0.2-0.7,0.2-1l0,0c0-0.3-0.1-0.7-0.2-1c-0.1-0.3-0.3-0.5-0.5-0.8  c-0.2-0.2-0.4-0.4-0.7-0.5c-0.3-0.1-0.5-0.2-0.8-0.2c-0.3,0-0.6,0.1-0.8,0.2c-0.3,0.1-0.5,0.3-0.7,0.5c-0.2,0.2-0.4,0.5-0.5,0.8  c-0.1,0.3-0.2,0.7-0.2,1l0,0c0,0.3,0.1,0.7,0.2,1c0.1,0.3,0.3,0.5,0.5,0.8C288.7,137,289.2,137.2,289.8,137.2L289.8,137.2z"/>
<path class="st1" d="M295.5,139.9c0.9-0.2,1.3-0.6,1.2-1.3H296v-1.9h1.9v1.6c0.1,0.6-0.1,1.3-0.5,1.7c-0.5,0.4-1,0.6-1.6,0.6  L295.5,139.9z"/>
<path class="st1" d="M306.1,128.6h4.5c1-0.1,1.9,0.2,2.6,0.9c0.4,0.4,0.7,1,0.7,1.6l0,0c0,0.3,0,0.5-0.1,0.8  c-0.1,0.2-0.2,0.4-0.3,0.6c-0.1,0.2-0.3,0.3-0.5,0.5c-0.2,0.1-0.3,0.2-0.5,0.3c0.3,0.1,0.5,0.2,0.8,0.4c0.2,0.1,0.4,0.3,0.6,0.5  c0.2,0.2,0.3,0.4,0.4,0.7c0.1,0.3,0.1,0.6,0.1,0.9l0,0c0,0.4-0.1,0.8-0.3,1.2c-0.2,0.3-0.4,0.6-0.7,0.9c-0.4,0.2-0.7,0.4-1.2,0.5  c-0.5,0.1-1,0.2-1.5,0.2h-4.6L306.1,128.6z M310.2,132.8c0.5,0,0.9-0.1,1.4-0.3c0.3-0.2,0.5-0.6,0.5-1l0,0c0-0.4-0.2-0.7-0.5-0.9  c-0.4-0.2-0.8-0.4-1.3-0.3h-2.5v2.6L310.2,132.8z M310.7,137c0.5,0,1-0.1,1.4-0.3c0.3-0.2,0.5-0.6,0.5-1l0,0c0-0.4-0.2-0.8-0.5-1  c-0.5-0.3-1-0.4-1.5-0.4h-2.8v2.7L310.7,137z"/>
<path class="st1" d="M320.6,138.7c-0.5,0-1-0.1-1.5-0.3c-0.9-0.4-1.6-1.1-2-2c-0.2-0.5-0.3-1-0.3-1.6l0,0c0-0.5,0.1-1,0.3-1.5  c0.2-0.5,0.4-0.9,0.8-1.2c0.3-0.4,0.7-0.6,1.2-0.8c0.5-0.2,1-0.3,1.5-0.3c0.5,0,1.1,0.1,1.6,0.3c0.4,0.2,0.8,0.5,1.1,0.9  c0.3,0.4,0.5,0.8,0.7,1.3c0.2,0.5,0.2,1,0.2,1.5c0,0.1,0,0.1,0,0.2s0,0.2,0,0.2h-5.5c0.1,0.5,0.3,1,0.7,1.4c0.4,0.3,0.9,0.5,1.4,0.5  c0.4,0,0.8-0.1,1.1-0.2c0.3-0.2,0.7-0.4,0.9-0.7l1,0.9c-0.4,0.4-0.8,0.8-1.3,1C321.8,138.6,321.2,138.7,320.6,138.7z M322.3,134.2  c0-0.3-0.1-0.5-0.2-0.8c-0.1-0.2-0.2-0.4-0.4-0.6c-0.2-0.2-0.4-0.3-0.6-0.4c-0.2-0.1-0.5-0.2-0.8-0.2c-0.5,0-1,0.2-1.3,0.6  c-0.4,0.4-0.6,0.9-0.6,1.4L322.3,134.2z"/>
<path class="st1" d="M326.6,128.1h1.7v10.4h-1.7V128.1z"/>
<path class="st1" d="M334.7,140.8c-1.2,0-2.3-0.3-3.4-0.9l0.6-1.3c0.4,0.2,0.8,0.4,1.2,0.6c0.5,0.1,0.9,0.2,1.4,0.2  c0.6,0,1.3-0.2,1.8-0.6c0.4-0.5,0.7-1.1,0.6-1.7v-0.6c-0.3,0.4-0.7,0.7-1.1,1c-0.5,0.3-1,0.4-1.5,0.4c-0.4,0-0.9-0.1-1.3-0.2  c-0.4-0.2-0.8-0.4-1.1-0.7c-0.3-0.3-0.6-0.7-0.8-1.1c-0.2-0.5-0.3-1-0.3-1.5l0,0c0-0.5,0.1-1,0.3-1.5c0.2-0.4,0.4-0.8,0.8-1.1  c0.3-0.3,0.7-0.5,1.1-0.7c0.4-0.2,0.8-0.2,1.3-0.2c0.5,0,1.1,0.1,1.6,0.4c0.4,0.2,0.8,0.5,1.1,0.9V131h1.7v6c0.1,1-0.3,2.1-1,2.8  c-0.4,0.4-0.8,0.6-1.3,0.8C335.9,140.8,335.3,140.8,334.7,140.8z M334.9,136.5c0.3,0,0.6-0.1,0.8-0.1c0.3-0.1,0.5-0.2,0.7-0.4  c0.2-0.2,0.4-0.4,0.5-0.6c0.1-0.3,0.2-0.5,0.2-0.8l0,0c0-0.3-0.1-0.6-0.2-0.9c-0.1-0.2-0.3-0.5-0.5-0.6c-0.2-0.2-0.4-0.3-0.7-0.4  c-0.3-0.1-0.6-0.1-0.8-0.1c-0.3,0-0.6,0-0.8,0.1c-0.2,0.1-0.5,0.2-0.7,0.4c-0.2,0.2-0.4,0.4-0.5,0.6c-0.1,0.3-0.2,0.6-0.2,0.9l0,0  c0,0.3,0.1,0.6,0.2,0.9c0.1,0.2,0.3,0.5,0.5,0.6c0.2,0.2,0.4,0.3,0.7,0.4C334.3,136.4,334.6,136.5,334.9,136.5L334.9,136.5z"/>
<path class="st1" d="M341.7,128.2h1.9v1.6h-1.9V128.2z M341.8,131h1.7v7.5h-1.7V131z"/>
<path class="st1" d="M349.2,138.7c-0.8,0.1-1.5-0.2-2-0.8c-0.5-0.6-0.7-1.3-0.7-2.1V131h1.7v4.2c0,0.5,0.1,1,0.4,1.4  c0.3,0.3,0.7,0.5,1.2,0.5c0.5,0,0.9-0.2,1.2-0.5c0.3-0.4,0.5-0.9,0.5-1.4V131h1.7v7.5h-1.7v-1.2c-0.2,0.4-0.6,0.7-0.9,0.9  C350.2,138.6,349.7,138.7,349.2,138.7z"/>
<path class="st1" d="M356.2,131h1.8v1.1c0.1-0.2,0.3-0.3,0.4-0.5c0.1-0.2,0.3-0.3,0.5-0.4c0.2-0.1,0.4-0.2,0.6-0.3  c0.2-0.1,0.5-0.1,0.8-0.1c0.5,0,1,0.1,1.4,0.4c0.4,0.2,0.7,0.6,0.9,1c0.3-0.4,0.7-0.7,1.1-1c0.4-0.3,1-0.4,1.5-0.4  c0.7,0,1.4,0.2,1.9,0.8c0.5,0.6,0.8,1.4,0.7,2.1v4.8H366v-4.2c0-0.5-0.1-1-0.4-1.4c-0.3-0.3-0.7-0.5-1.1-0.5c-0.4,0-0.9,0.2-1.1,0.5  c-0.3,0.4-0.5,0.9-0.5,1.4v4.2h-1.7v-4.3c0-0.5-0.1-1-0.4-1.4c-0.3-0.3-0.7-0.5-1.1-0.5c-0.4,0-0.9,0.2-1.2,0.5  c-0.3,0.4-0.5,0.9-0.4,1.4v4.2h-1.7L356.2,131z"/>
<path class="st0" d="M11.7,90.6h3.9c0.7,0,1.5,0.1,2.1,0.4c0.6,0.2,1.2,0.6,1.7,1c0.5,0.4,0.8,1,1.1,1.6c0.3,0.6,0.4,1.3,0.4,2l0,0  c0,0.7-0.1,1.4-0.4,2c-0.2,0.6-0.6,1.1-1.1,1.6c-0.5,0.5-1.1,0.8-1.7,1.1c-0.7,0.3-1.4,0.4-2.1,0.4h-3.9V90.6z M15.6,98.6  c0.4,0,0.8-0.1,1.2-0.2c0.4-0.1,0.7-0.3,1-0.6c0.3-0.3,0.5-0.6,0.6-0.9c0.2-0.4,0.2-0.8,0.2-1.2l0,0c0-0.4-0.1-0.8-0.2-1.2  c-0.1-0.4-0.3-0.7-0.6-1c-0.3-0.3-0.6-0.5-1-0.6c-0.4-0.2-0.8-0.2-1.2-0.2h-1.7v6L15.6,98.6z"/>
<path class="st0" d="M26,90.6h7.5v1.9h-5.3v2h4.7v1.9h-4.7v2.1h5.4v1.9H26V90.6z"/>
<path class="st0" d="M38.8,90.6h7.5v1.9H41v2h4.7v1.9H41v2.1h5.4v1.9h-7.6V90.6z"/>
<path class="st0" d="M51.7,90.6h4.1c0.5,0,1.1,0.1,1.6,0.2c0.4,0.1,0.8,0.4,1.2,0.7c0.3,0.3,0.6,0.7,0.8,1.1  c0.2,0.4,0.3,0.9,0.3,1.4l0,0c0,0.5-0.1,1-0.3,1.5c-0.2,0.4-0.5,0.8-0.9,1.1c-0.4,0.3-0.8,0.5-1.3,0.7c-0.5,0.2-1,0.2-1.6,0.2h-1.7  v3h-2.2V90.6z M55.6,95.6c0.5,0,0.9-0.1,1.3-0.4c0.3-0.3,0.5-0.7,0.5-1.1l0,0c0-0.4-0.2-0.8-0.5-1.1c-0.4-0.3-0.8-0.4-1.3-0.4h-1.7  v3H55.6z"/>
<path class="st0" d="M72.1,90.6h2.2v4.3l4-4.3H81l-4.1,4.2l4.2,5.7h-2.6l-3.1-4.2l-1.1,1.2v3h-2.2V90.6z"/>
<path class="st0" d="M85.7,90.6h2l4.7,6.1v-6.1h2.2v9.9h-1.8l-4.8-6.3v6.3h-2.2V90.6z"/>
<path class="st0" d="M104.9,100.7c-0.7,0-1.4-0.1-2.1-0.4c-0.6-0.3-1.2-0.6-1.7-1.1c-0.5-0.5-0.8-1-1.1-1.6c-0.3-0.6-0.4-1.3-0.4-2  l0,0c0-0.7,0.1-1.4,0.4-2c0.5-1.2,1.5-2.2,2.8-2.7c0.7-0.3,1.4-0.4,2.1-0.4c0.7,0,1.4,0.1,2.1,0.4c0.6,0.3,1.2,0.6,1.7,1.1  c0.5,0.5,0.8,1,1.1,1.6c0.3,0.6,0.4,1.3,0.4,2l0,0c0,0.7-0.1,1.4-0.4,2c-0.5,1.2-1.5,2.2-2.8,2.7  C106.4,100.6,105.7,100.7,104.9,100.7z M104.9,98.7c0.4,0,0.8-0.1,1.2-0.2c0.4-0.2,0.7-0.4,0.9-0.7c0.3-0.3,0.5-0.6,0.6-1  c0.1-0.4,0.2-0.8,0.2-1.2l0,0c0-0.4-0.1-0.8-0.2-1.2c-0.3-0.7-0.9-1.3-1.6-1.7c-0.4-0.2-0.8-0.3-1.2-0.2c-0.4,0-0.8,0.1-1.2,0.2  c-0.4,0.2-0.7,0.4-0.9,0.7c-0.3,0.3-0.5,0.6-0.6,1c-0.1,0.4-0.2,0.8-0.2,1.2l0,0c0,0.4,0.1,0.8,0.2,1.2c0.1,0.4,0.4,0.7,0.6,1  c0.3,0.3,0.6,0.5,1,0.7C104.2,98.6,104.6,98.7,104.9,98.7L104.9,98.7z"/>
<path class="st0" d="M114.1,90.6h2.3l2.1,6.7l2.2-6.8h1.9l2.2,6.8l2.1-6.7h2.3l-3.4,10h-1.9l-2.2-6.5l-2.2,6.5h-1.9L114.1,90.6z"/>
<path class="st0" d="M133.9,90.6h2.2v8h5v2h-7.1L133.9,90.6z"/>
<path class="st0" d="M145.7,90.6h7.5v1.9h-5.3v2h4.7v1.9h-4.7v2.1h5.4v1.9h-7.6V90.6z"/>
<path class="st0" d="M158.5,90.6h3.9c0.7,0,1.5,0.1,2.1,0.4c0.6,0.2,1.2,0.6,1.7,1c0.5,0.4,0.8,1,1.1,1.6c0.3,0.6,0.4,1.3,0.4,2l0,0  c0,0.7-0.1,1.4-0.4,2c-0.2,0.6-0.6,1.1-1.1,1.6c-0.5,0.5-1.1,0.8-1.7,1.1c-0.7,0.3-1.4,0.4-2.1,0.4h-3.9V90.6z M162.4,98.6  c0.4,0,0.8-0.1,1.2-0.2c0.4-0.1,0.7-0.3,0.9-0.6c0.3-0.3,0.5-0.6,0.6-0.9c0.2-0.4,0.2-0.8,0.2-1.2l0,0c0-0.4-0.1-0.8-0.2-1.2  c-0.1-0.4-0.3-0.7-0.6-1c-0.3-0.3-0.6-0.5-0.9-0.6c-0.4-0.2-0.8-0.2-1.2-0.2h-1.7v6L162.4,98.6z"/>
<path class="st0" d="M177.6,100.7c-0.7,0-1.4-0.1-2.1-0.4c-0.6-0.2-1.2-0.6-1.6-1.1c-0.5-0.5-0.8-1-1.1-1.6c-0.3-0.6-0.4-1.3-0.4-2  l0,0c0-2.1,1.2-3.9,3.1-4.7c0.7-0.3,1.4-0.4,2.1-0.4c0.4,0,0.8,0,1.2,0.1c0.3,0.1,0.7,0.1,1,0.3c0.3,0.1,0.6,0.3,0.9,0.4  c0.3,0.2,0.5,0.4,0.8,0.6l-1.4,1.7c-0.2-0.2-0.4-0.3-0.6-0.4c-0.2-0.1-0.4-0.2-0.6-0.3c-0.2-0.1-0.4-0.2-0.7-0.2  c-0.3,0-0.5-0.1-0.8-0.1c-0.4,0-0.8,0.1-1.1,0.2c-0.3,0.2-0.7,0.4-0.9,0.7c-0.3,0.3-0.5,0.6-0.6,1c-0.1,0.4-0.2,0.8-0.2,1.2l0,0  c0,0.4,0.1,0.9,0.2,1.3c0.1,0.4,0.4,0.7,0.6,1c0.3,0.3,0.6,0.5,1,0.7c0.4,0.2,0.8,0.2,1.2,0.2c0.7,0,1.5-0.2,2.1-0.6v-1.5h-2.2v-1.9  h4.3v4.3c-0.6,0.5-1.2,0.8-1.8,1.1C179.2,100.6,178.4,100.7,177.6,100.7z"/>
<path class="st0" d="M187.2,90.6h7.5v1.9h-5.3v2h4.7v1.9h-4.7v2.1h5.4v1.9h-7.6V90.6z"/>
<path class="st0" d="M207.8,90.6h2.2v9.9h-2.2L207.8,90.6z"/>
<path class="st0" d="M217.7,92.6h-3v-2h8.2v2h-3v7.9h-2.2L217.7,92.6z"/>
<path class="st0" d="M240.2,100.7c-0.7,0-1.4-0.1-2-0.4c-1.2-0.5-2.2-1.5-2.7-2.7c-0.3-0.6-0.4-1.3-0.4-2l0,0c0-0.7,0.1-1.4,0.4-2  c0.2-0.6,0.6-1.2,1.1-1.6c0.5-0.5,1-0.9,1.6-1.1c0.7-0.3,1.4-0.4,2.1-0.4c0.4,0,0.9,0,1.3,0.1c0.3,0.1,0.7,0.2,1,0.3  c0.3,0.1,0.6,0.3,0.9,0.5c0.3,0.2,0.5,0.4,0.7,0.6l-1.4,1.6c-0.4-0.3-0.8-0.6-1.2-0.8c-0.4-0.2-0.9-0.3-1.4-0.3  c-0.8,0-1.5,0.3-2.1,0.9c-0.3,0.3-0.5,0.6-0.6,1c-0.1,0.4-0.2,0.8-0.2,1.2l0,0c0,0.4,0.1,0.8,0.2,1.2c0.1,0.4,0.3,0.7,0.6,1  c0.5,0.6,1.3,0.9,2.1,0.9c0.5,0,1-0.1,1.4-0.3c0.4-0.2,0.8-0.5,1.2-0.8l1.4,1.4c-0.2,0.3-0.5,0.5-0.8,0.7c-0.3,0.2-0.6,0.4-0.9,0.6  c-0.3,0.2-0.7,0.3-1.1,0.4C241.1,100.7,240.6,100.7,240.2,100.7z"/>
<path class="st0" d="M253.7,100.7c-0.7,0-1.4-0.1-2.1-0.4c-0.6-0.3-1.2-0.6-1.7-1.1c-0.5-0.5-0.8-1-1.1-1.6c-0.3-0.6-0.4-1.3-0.4-2  l0,0c0-0.7,0.1-1.4,0.4-2c0.5-1.2,1.5-2.2,2.8-2.7c0.7-0.3,1.4-0.4,2.1-0.4c0.7,0,1.4,0.1,2.1,0.4c0.6,0.3,1.2,0.6,1.7,1.1  c0.5,0.5,0.8,1,1.1,1.6c0.3,0.6,0.4,1.3,0.4,2l0,0c0,0.7-0.1,1.4-0.4,2c-0.5,1.2-1.5,2.2-2.8,2.7  C255.1,100.6,254.4,100.7,253.7,100.7z M253.7,98.7c0.4,0,0.8-0.1,1.2-0.2c0.4-0.2,0.7-0.4,0.9-0.7c0.3-0.3,0.5-0.6,0.6-1  c0.1-0.4,0.2-0.8,0.2-1.2l0,0c0-0.4-0.1-0.8-0.2-1.2c-0.3-0.7-0.9-1.3-1.6-1.7c-0.4-0.2-0.8-0.3-1.2-0.2c-0.4,0-0.8,0.1-1.2,0.2  c-0.4,0.2-0.7,0.4-0.9,0.7c-0.3,0.3-0.5,0.6-0.6,1c-0.1,0.4-0.2,0.8-0.2,1.2l0,0c0,0.4,0.1,0.8,0.2,1.2c0.1,0.4,0.4,0.7,0.6,1  c0.3,0.3,0.6,0.5,1,0.7C252.9,98.6,253.3,98.7,253.7,98.7L253.7,98.7z"/>
<path class="st0" d="M264.1,90.6h2l4.7,6.1v-6.1h2.2v9.9h-1.9l-4.8-6.3v6.3h-2.2L264.1,90.6z"/>
<path class="st0" d="M278.6,90.6h7.6v2h-5.4v2.1h4.8v2h-4.8v3.8h-2.2L278.6,90.6z"/>
<path class="st0" d="M291,90.6h7.5v1.9h-5.3v2h4.7v1.9h-4.7v2.1h5.4v1.9H291V90.6z"/>
<path class="st0" d="M303.9,90.6h4.5c1.1-0.1,2.1,0.3,2.9,1c0.6,0.6,0.9,1.4,0.9,2.3l0,0c0,0.7-0.2,1.4-0.6,2  c-0.4,0.5-0.9,0.9-1.5,1.2l2.4,3.6h-2.6l-2.1-3.2h-1.7v3.2h-2.2L303.9,90.6z M308.3,95.4c0.4,0,0.9-0.1,1.2-0.4  c0.3-0.3,0.4-0.6,0.4-1l0,0c0-0.4-0.1-0.8-0.5-1.1c-0.4-0.3-0.8-0.4-1.3-0.4h-2.2v2.9L308.3,95.4z"/>
<path class="st0" d="M317.4,90.6h7.5v1.9h-5.3v2h4.7v1.9h-4.7v2.1h5.4v1.9h-7.6L317.4,90.6z"/>
<path class="st0" d="M330.3,90.6h2l4.7,6.1v-6.1h2.2v9.9h-1.9l-4.8-6.3v6.3h-2.2L330.3,90.6z"/>
<path class="st0" d="M349.4,100.7c-0.7,0-1.4-0.1-2-0.4c-1.2-0.5-2.2-1.5-2.7-2.7c-0.3-0.6-0.4-1.3-0.4-2l0,0c0-0.7,0.1-1.4,0.4-2  c0.2-0.6,0.6-1.2,1.1-1.6c0.5-0.5,1-0.9,1.6-1.1c0.7-0.3,1.4-0.4,2.1-0.4c0.4,0,0.9,0,1.3,0.1c0.3,0.1,0.7,0.2,1,0.3  c0.3,0.1,0.6,0.3,0.9,0.5c0.3,0.2,0.5,0.4,0.7,0.6l-1.3,1.6c-0.4-0.3-0.8-0.6-1.2-0.8c-0.4-0.2-0.9-0.3-1.4-0.3  c-0.4,0-0.8,0.1-1.2,0.2c-0.4,0.2-0.7,0.4-0.9,0.7c-0.3,0.3-0.5,0.6-0.6,1c-0.1,0.4-0.2,0.8-0.2,1.2l0,0c0,0.4,0.1,0.8,0.2,1.2  c0.1,0.4,0.3,0.7,0.6,1c0.5,0.6,1.3,0.9,2.1,0.9c0.5,0,1-0.1,1.4-0.3c0.4-0.2,0.8-0.5,1.2-0.8l1.4,1.4c-0.2,0.3-0.5,0.5-0.8,0.7  c-0.3,0.2-0.6,0.4-0.9,0.6c-0.3,0.2-0.7,0.3-1.1,0.4C350.2,100.7,349.8,100.7,349.4,100.7z"/>
<path class="st0" d="M358.2,90.6h7.5v1.9h-5.3v2h4.7v1.9h-4.7v2.1h5.4v1.9h-7.6V90.6z"/>
<rect x="12.4" y="114.3" class="st0" width="354.4" height="1.2"/>
<g>
	<g>
		<path class="st2" d="M12.8,128.6h1.9l3,4.7l3-4.7h1.9v9.9h-1.7v-7.1l-3.1,4.7h-0.1l-3.1-4.7v7.1h-1.7V128.6z"/>
		<path class="st2" d="M30.4,138.5v-0.9c-0.3,0.3-0.6,0.6-1,0.8c-0.4,0.2-0.9,0.3-1.4,0.3c-0.4,0-0.7,0-1-0.1    c-0.3-0.1-0.6-0.2-0.8-0.4c-0.2-0.2-0.4-0.4-0.6-0.7c-0.1-0.3-0.2-0.6-0.2-1v0c0-0.4,0.1-0.8,0.2-1.1c0.2-0.3,0.4-0.6,0.6-0.8    c0.3-0.2,0.6-0.4,1-0.5c0.4-0.1,0.8-0.1,1.2-0.1c0.5,0,0.8,0,1.2,0.1c0.3,0.1,0.6,0.1,0.9,0.2V134c0-0.5-0.2-0.9-0.5-1.2    c-0.3-0.3-0.8-0.4-1.4-0.4c-0.4,0-0.8,0-1.1,0.1c-0.3,0.1-0.7,0.2-1,0.3l-0.5-1.4c0.4-0.2,0.8-0.3,1.3-0.5c0.4-0.1,1-0.2,1.6-0.2    c1.1,0,1.9,0.3,2.5,0.8c0.5,0.6,0.8,1.3,0.8,2.3v4.4H30.4z M30.5,135.4c-0.2-0.1-0.5-0.2-0.8-0.2c-0.3-0.1-0.6-0.1-0.9-0.1    c-0.5,0-1,0.1-1.3,0.3c-0.3,0.2-0.5,0.5-0.5,0.9v0c0,0.4,0.1,0.6,0.4,0.8c0.3,0.2,0.6,0.3,1,0.3c0.3,0,0.5,0,0.8-0.1    c0.2-0.1,0.5-0.2,0.6-0.3c0.2-0.1,0.3-0.3,0.4-0.5s0.1-0.4,0.1-0.6V135.4z"/>
		<path class="st2" d="M36.2,140.8c-0.4,0-0.7,0-1-0.1c-0.3-0.1-0.6-0.2-0.8-0.3l0.6-1.3c0.2,0.1,0.3,0.2,0.5,0.2    c0.2,0.1,0.3,0.1,0.5,0.1c0.2,0,0.4-0.1,0.6-0.2c0.2-0.1,0.3-0.4,0.5-0.7l-3.1-7.5h1.8l2.1,5.6l1.9-5.6h1.8l-3,7.7    c-0.2,0.4-0.3,0.7-0.5,1c-0.2,0.3-0.3,0.5-0.5,0.6c-0.2,0.2-0.4,0.3-0.7,0.4C36.7,140.8,36.5,140.8,36.2,140.8z"/>
		<path class="st2" d="M48.7,137.1l3.4-2.9c0.3-0.3,0.6-0.5,0.9-0.8c0.2-0.2,0.4-0.5,0.6-0.7c0.1-0.2,0.3-0.4,0.3-0.6    c0.1-0.2,0.1-0.4,0.1-0.6c0-0.5-0.2-0.9-0.5-1.1c-0.3-0.3-0.7-0.4-1.1-0.4c-0.5,0-0.9,0.1-1.2,0.4c-0.3,0.2-0.7,0.6-1.1,1.1    l-1.2-1c0.2-0.3,0.5-0.6,0.7-0.9c0.2-0.3,0.5-0.5,0.8-0.7c0.3-0.2,0.6-0.3,1-0.4c0.3-0.1,0.7-0.1,1.2-0.1c0.5,0,0.9,0.1,1.3,0.2    c0.4,0.1,0.7,0.3,1,0.6c0.3,0.3,0.5,0.6,0.7,0.9c0.2,0.4,0.2,0.8,0.2,1.2v0c0,0.4-0.1,0.7-0.2,1.1c-0.1,0.3-0.3,0.6-0.5,0.9    c-0.2,0.3-0.5,0.6-0.8,0.9c-0.3,0.3-0.7,0.6-1.1,1l-2,1.7h4.7v1.5h-7.2V137.1z"/>
		<path class="st2" d="M58.3,137.1l3.4-2.9c0.3-0.3,0.6-0.5,0.9-0.8c0.2-0.2,0.4-0.5,0.6-0.7c0.1-0.2,0.3-0.4,0.3-0.6    c0.1-0.2,0.1-0.4,0.1-0.6c0-0.5-0.2-0.9-0.5-1.1c-0.3-0.3-0.7-0.4-1.1-0.4s-0.9,0.1-1.2,0.4c-0.3,0.2-0.7,0.6-1.1,1.1l-1.2-1    c0.2-0.3,0.5-0.6,0.7-0.9c0.2-0.3,0.5-0.5,0.8-0.7c0.3-0.2,0.6-0.3,1-0.4c0.3-0.1,0.7-0.1,1.2-0.1c0.5,0,0.9,0.1,1.3,0.2    c0.4,0.1,0.7,0.3,1,0.6c0.3,0.3,0.5,0.6,0.7,0.9c0.2,0.4,0.2,0.8,0.2,1.2v0c0,0.4-0.1,0.7-0.2,1.1c-0.1,0.3-0.3,0.6-0.5,0.9    s-0.5,0.6-0.8,0.9c-0.3,0.3-0.7,0.6-1.1,1l-2,1.7h4.7v1.5h-7.2V137.1z"/>
		<path class="st2" d="M67.8,133.3H72v1.7h-4.2V133.3z"/>
		<path class="st2" d="M73.8,137.1l3.4-2.9c0.3-0.3,0.6-0.5,0.9-0.8c0.2-0.2,0.4-0.5,0.6-0.7c0.1-0.2,0.3-0.4,0.3-0.6    c0.1-0.2,0.1-0.4,0.1-0.6c0-0.5-0.2-0.9-0.5-1.1c-0.3-0.3-0.7-0.4-1.1-0.4c-0.5,0-0.9,0.1-1.2,0.4c-0.3,0.2-0.7,0.6-1.1,1.1    l-1.2-1c0.2-0.3,0.5-0.6,0.7-0.9c0.2-0.3,0.5-0.5,0.8-0.7c0.3-0.2,0.6-0.3,1-0.4c0.3-0.1,0.7-0.1,1.2-0.1c0.5,0,0.9,0.1,1.3,0.2    c0.4,0.1,0.7,0.3,1,0.6c0.3,0.3,0.5,0.6,0.7,0.9c0.2,0.4,0.2,0.8,0.2,1.2v0c0,0.4-0.1,0.7-0.2,1.1c-0.1,0.3-0.3,0.6-0.5,0.9    c-0.2,0.3-0.5,0.6-0.8,0.9c-0.3,0.3-0.7,0.6-1.1,1l-2,1.7H81v1.5h-7.2V137.1z"/>
		<path class="st2" d="M88.3,136.3h-5l-0.3-1.3l5.5-6.5h1.5v6.4h1.4v1.4h-1.4v2.2h-1.7V136.3z M88.3,134.9v-3.9l-3.3,3.9H88.3z"/>
		<path class="st2" d="M99.7,127.2h1.4v13.2h-1.4V127.2z"/>
		<path class="st2" d="M108.2,137.1l3.4-2.9c0.3-0.3,0.6-0.5,0.9-0.8c0.2-0.2,0.4-0.5,0.6-0.7c0.1-0.2,0.3-0.4,0.3-0.6    c0.1-0.2,0.1-0.4,0.1-0.6c0-0.5-0.2-0.9-0.5-1.1c-0.3-0.3-0.7-0.4-1.1-0.4c-0.5,0-0.9,0.1-1.2,0.4c-0.3,0.2-0.7,0.6-1.1,1.1    l-1.2-1c0.2-0.3,0.5-0.6,0.7-0.9c0.2-0.3,0.5-0.5,0.8-0.7c0.3-0.2,0.6-0.3,1-0.4c0.3-0.1,0.7-0.1,1.2-0.1c0.5,0,0.9,0.1,1.3,0.2    c0.4,0.1,0.7,0.3,1,0.6c0.3,0.3,0.5,0.6,0.7,0.9c0.2,0.4,0.2,0.8,0.2,1.2v0c0,0.4-0.1,0.7-0.2,1.1c-0.1,0.3-0.3,0.6-0.5,0.9    c-0.2,0.3-0.5,0.6-0.8,0.9c-0.3,0.3-0.7,0.6-1.1,1l-2,1.7h4.7v1.5h-7.2V137.1z"/>
		<path class="st2" d="M122.1,138.7c-0.7,0-1.2-0.1-1.8-0.4c-0.5-0.3-1-0.6-1.4-1.1c-0.4-0.5-0.7-1-0.9-1.6c-0.2-0.6-0.3-1.3-0.3-2    v0c0-0.7,0.1-1.4,0.3-2c0.2-0.6,0.5-1.2,0.9-1.6c0.4-0.5,0.8-0.8,1.4-1.1c0.5-0.3,1.1-0.4,1.8-0.4c0.7,0,1.2,0.1,1.8,0.4    c0.5,0.3,1,0.6,1.4,1.1c0.4,0.5,0.7,1,0.9,1.6c0.2,0.6,0.3,1.3,0.3,2v0c0,0.7-0.1,1.4-0.3,2c-0.2,0.6-0.5,1.2-0.9,1.6    s-0.8,0.8-1.4,1.1C123.4,138.6,122.8,138.7,122.1,138.7z M122.1,137.1c0.4,0,0.7-0.1,1-0.3c0.3-0.2,0.6-0.4,0.8-0.8    c0.2-0.3,0.4-0.7,0.5-1.1c0.1-0.4,0.2-0.9,0.2-1.4v0c0-0.5-0.1-1-0.2-1.4c-0.1-0.4-0.3-0.8-0.5-1.1c-0.2-0.3-0.5-0.6-0.8-0.8    c-0.3-0.2-0.7-0.3-1-0.3c-0.4,0-0.7,0.1-1,0.3c-0.3,0.2-0.6,0.4-0.8,0.8c-0.2,0.3-0.4,0.7-0.5,1.1c-0.1,0.4-0.2,0.9-0.2,1.4v0    c0,0.5,0.1,1,0.2,1.4c0.1,0.4,0.3,0.8,0.5,1.1c0.2,0.3,0.5,0.6,0.8,0.8C121.4,137,121.8,137.1,122.1,137.1z"/>
		<path class="st2" d="M130.4,130.3l-1.8,0.5l-0.4-1.4l2.7-0.9h1.2v10h-1.7V130.3z"/>
		<path class="st2" d="M139,138.7c-0.5,0-1-0.1-1.5-0.2c-0.5-0.1-0.9-0.3-1.2-0.6c-0.3-0.2-0.6-0.5-0.8-0.9    c-0.2-0.3-0.3-0.7-0.3-1.2v0c0-0.6,0.2-1.1,0.5-1.5c0.3-0.4,0.8-0.7,1.3-0.9c-0.4-0.2-0.8-0.5-1-0.9c-0.3-0.4-0.4-0.8-0.4-1.4v0    c0-0.4,0.1-0.7,0.3-1.1c0.2-0.3,0.4-0.6,0.7-0.9c0.3-0.2,0.7-0.4,1.1-0.6c0.4-0.1,0.9-0.2,1.4-0.2c0.5,0,1,0.1,1.4,0.2    c0.4,0.1,0.8,0.3,1.1,0.6c0.3,0.2,0.5,0.5,0.7,0.9c0.2,0.3,0.3,0.7,0.3,1.1v0c0,0.6-0.1,1-0.4,1.4c-0.3,0.4-0.6,0.6-1,0.9    c0.5,0.2,1,0.6,1.3,0.9c0.3,0.4,0.5,0.9,0.5,1.5v0c0,0.4-0.1,0.8-0.3,1.2c-0.2,0.4-0.5,0.7-0.8,0.9c-0.3,0.2-0.7,0.4-1.2,0.6    C140.1,138.6,139.6,138.7,139,138.7z M139,137.2c0.7,0,1.2-0.1,1.5-0.4s0.6-0.6,0.6-1.1v0c0-0.2-0.1-0.4-0.2-0.6    c-0.1-0.2-0.3-0.3-0.4-0.5c-0.2-0.1-0.4-0.2-0.7-0.3c-0.3-0.1-0.5-0.1-0.8-0.1s-0.6,0-0.8,0.1c-0.3,0.1-0.5,0.2-0.7,0.3    c-0.2,0.1-0.3,0.3-0.4,0.5c-0.1,0.2-0.2,0.4-0.2,0.6v0c0,0.4,0.2,0.8,0.6,1.1C137.9,137.1,138.4,137.2,139,137.2z M139,132.8    c0.5,0,0.9-0.1,1.3-0.4c0.3-0.3,0.5-0.6,0.5-1.1v0c0-0.4-0.2-0.7-0.5-1c-0.3-0.3-0.8-0.4-1.3-0.4s-1,0.1-1.3,0.4    c-0.3,0.3-0.5,0.6-0.5,1v0c0,0.4,0.2,0.8,0.5,1.1C138.1,132.7,138.5,132.8,139,132.8z"/>
	</g>
</g>
</svg>